<?xml version="1.0" encoding="utf-8"?>
<!-- Generator: Adobe Illustrator 16.0.0, SVG Export Plug-In . SVG Version: 6.00 Build 0)  -->
<!DOCTYPE svg PUBLIC "-//W3C//DTD SVG 1.1//EN" "http://www.w3.org/Graphics/SVG/1.1/DTD/svg11.dtd">
<svg version="1.1" xmlns="http://www.w3.org/2000/svg" xmlns:xlink="http://www.w3.org/1999/xlink" x="0px" y="0px"
	 width="498.897px" height="198.425px" viewBox="0 0 498.897 198.425" enable-background="new 0 0 498.897 198.425"
	 xml:space="preserve">
<g id="レイヤー_2">
</g>
<g id="レイヤー_1">
	<g>
		<g>
			<g>
				<defs>
					<rect id="SVGID_1_" x="1.413" y="3.553" width="166.455" height="193.872"/>
				</defs>
				<clipPath id="SVGID_2_">
					<use xlink:href="#SVGID_1_"  overflow="visible"/>
				</clipPath>
				<g clip-path="url(#SVGID_2_)">
					<defs>
						<rect id="SVGID_3_" x="1.413" y="3.553" width="166.532" height="194.288"/>
					</defs>
					<clipPath id="SVGID_4_">
						<use xlink:href="#SVGID_3_"  overflow="visible"/>
					</clipPath>
					<rect x="1.413" y="3.553" clip-path="url(#SVGID_4_)" fill="#FFFFFF" width="166.532" height="194.288"/>
				</g>
				<rect x="1.413" y="3.553" clip-path="url(#SVGID_2_)" fill="#FFFFFF" width="166.532" height="194.288"/>
				<g clip-path="url(#SVGID_2_)">
					<text transform="matrix(1.0025 0 0 1 36.7197 20.0322)" font-family="'Arial-BoldMT'" font-size="7.5326">HPC electrographic seizures</text>
				</g>
				
					<polyline clip-path="url(#SVGID_2_)" fill="none" stroke="#000000" stroke-width="0.5002" stroke-linejoin="round" stroke-miterlimit="10" points="
					23.185,56.216 23.445,56.401 23.705,56.268 23.963,56.237 24.223,56.196 24.482,56.042 24.742,56.001 25.001,56.147 
					25.261,55.983 25.521,55.921 25.78,55.952 26.039,55.932 26.299,55.871 26.558,55.832 26.817,55.781 27.077,55.811 
					27.336,55.739 27.596,55.678 27.855,54.109 28.114,40.394 28.374,28.593 28.634,24.287 28.893,22.923 29.152,25.671 
					29.412,29.3 29.671,30.277 29.931,30.769 30.19,32.727 30.45,35.608 30.709,38.797 30.969,41.937 31.228,45.413 31.487,47.75 
					31.747,49.329 32.006,50.744 32.266,51.423 32.525,51.669 32.785,51.341 33.044,50.244 33.303,51.156 33.563,51.454 
					33.822,52.062 34.082,53.046 34.341,53.548 34.601,53.445 34.86,53.171 35.12,52.648 35.379,52.023 35.638,51.572 
					35.898,51.295 36.157,50.662 36.417,50.139 36.676,50.169 36.936,50.18 37.195,49.083 37.455,40.74 37.714,32.096 
					37.973,30.753 38.233,33.942 38.492,38.743 38.752,41.491 39.011,43.264 39.271,45.397 39.53,47.666 39.79,50.137 
					40.049,52.372 40.309,55.099 40.567,56.473 40.827,57.49 41.087,58.71 41.346,58.116 41.605,57.89 41.865,58.262 42.124,57.411 
					42.384,56.016 42.644,56.16 42.902,56.111 43.162,55.763 43.422,55.834 43.681,55.824 43.94,55.693 44.2,55.714 44.459,55.437 
					44.719,54.845 44.978,54.999 45.238,54.907 45.497,55.255 45.756,55.37 46.016,51.116 46.275,40.401 46.535,35.736 
					46.794,35.021 47.054,39.246 47.313,43.234 47.573,45.072 47.832,46.23 48.091,47.44 48.351,48.537 48.61,50.888 48.87,53.809 
					49.129,56.229 49.389,58.218 49.648,58.446 49.908,57.882 50.167,55.781 50.426,54.901 50.686,55.681 50.945,55.64 
					51.205,56.073 51.464,57.159 51.724,57.846 51.983,58.072 52.242,58.198 52.502,57.87 52.762,57.408 53.021,57.226 53.28,57.37 
					53.54,57.657 53.799,58.203 54.059,58.562 54.318,57.844 54.577,51.193 54.837,39.217 55.097,34.778 55.355,34.309 
					55.615,38.912 55.875,42.593 56.134,44.315 56.394,45.271 56.653,46.779 56.912,48.675 57.172,51.395 57.431,54.512 
					57.691,56.952 57.95,58.852 58.209,58.031 58.469,57.938 58.729,58.977 58.988,58.587 59.248,58.229 59.507,58.559 
					59.766,58.651 60.026,59.215 60.285,59.392 60.544,58.982 60.804,58.841 61.063,58.411 61.323,58.185 61.583,57.962 
					61.842,57.962 62.101,57.88 62.361,57.923 62.62,57.944 62.879,57.688 63.139,57.751 63.398,57.598 63.658,57.403 
					63.917,57.324 64.177,57.364 64.436,57.285 64.695,57.49 64.955,57.142 65.214,50.265 65.474,36.885 65.733,32.374 
					65.993,31.627 66.252,35.841 66.512,40.099 66.771,41.812 67.03,42.836 67.29,44.162 67.55,46.161 67.809,49.77 68.068,53.392 
					68.328,56.037 68.587,58.192 68.847,58.305 69.106,55.547 69.365,55.068 69.625,57.283 69.884,57.962 70.144,57.439 
					70.403,57.459 70.663,59.082 70.922,59.902 71.182,59.584 71.441,59.054 71.701,58.521 71.959,58.113 72.219,57.785 
					72.479,57.99 72.738,58.034 72.998,57.911 73.257,57.708 73.516,57.534 73.776,57.239 74.036,57.136 74.294,57.085 
					74.554,56.955 74.814,56.934 75.073,56.844 75.333,56.701 75.592,56.813 75.852,56.806 76.111,56.714 76.37,56.614 
					76.63,56.573 76.889,56.544 77.148,56.462 77.408,56.401 77.667,56.26 77.927,56.26 78.187,56.385 78.446,56.458 78.705,56.419 
					78.965,56.368 79.224,56.377 79.483,56.38 79.743,56.298 80.002,56.342 80.262,56.465 80.521,56.426 80.781,56.375 
					81.04,56.549 81.3,56.511 81.559,56.532 81.818,56.76 82.078,56.832 82.337,56.526 82.597,56.701 82.856,56.652 83.116,56.703 
					83.375,56.806 83.634,56.818 83.894,56.88 84.153,56.914 84.413,57.037 84.672,56.896 84.932,56.988 85.191,56.939 
					85.451,56.908 85.71,56.962 85.969,56.952 86.229,57.108 86.489,57.067 86.748,56.985 87.007,57.019 87.267,57.049 
					87.526,56.991 87.786,57.063 88.045,57.178 88.304,57.178 88.564,57.057 88.823,57.119 89.083,57.172 89.342,56.978 
					89.602,56.991 89.861,57.052 90.121,56.952 90.38,56.973 90.64,57.014 90.899,57.057 91.158,57.087 91.418,57.121 
					91.677,56.937 91.937,56.929 92.196,57.021 92.455,57.095 92.715,57.034 92.975,56.975 93.233,57.057 93.493,56.988 
					93.753,56.947 94.012,57.165 94.271,57.052 94.531,56.921 94.79,57.095 95.05,57.098 95.31,56.873 95.569,56.978 95.828,56.927 
					96.087,56.786 96.347,56.919 96.606,56.942 96.866,56.921 97.125,56.882 97.385,56.842 97.644,56.721 97.904,56.629 
					98.163,56.642 98.422,56.734 98.682,56.624 98.941,56.716 99.201,56.708 99.46,56.698 99.72,56.588 99.979,56.68 
					100.239,56.734 100.498,56.519 100.757,56.47 101.017,56.347 101.276,56.298 101.536,56.216 101.795,56.024 102.055,55.193 
					102.314,53.72 102.574,49.465 102.833,42.167 103.092,36.108 103.352,29.785 103.611,27.888 103.871,28.29 104.13,29.356 
					104.39,31.225 104.649,32.825 104.908,34.837 105.168,36.949 105.428,39.033 105.687,41.434 105.946,43.926 106.206,45.107 
					106.465,46.41 106.725,46.597 106.984,46.833 107.243,47.286 107.503,47.389 107.762,48.417 108.021,49.893 108.281,51.013 
					108.541,51.792 108.8,52.276 109.06,52.513 109.319,52.32 109.579,50.105 109.838,42.49 110.097,35.016 110.357,32.783 
					110.616,34.834 110.875,36.58 111.135,38.571 111.395,39.299 111.654,40.614 111.914,42.337 112.172,44.256 112.432,46.42 
					112.692,49.078 112.951,51.077 113.21,52.628 113.47,54.319 113.729,55.184 113.989,54.579 114.249,53.34 114.508,51.977 
					114.767,50.852 115.027,50.085 115.286,50.977 115.545,52.005 115.805,52.917 116.064,52.992 116.324,52.582 116.583,47.909 
					116.843,38.63 117.102,34.572 117.361,34.624 117.621,38.276 117.881,40.922 118.14,42.872 118.399,44.525 118.659,46.463 
					118.918,48.476 119.178,50.68 119.438,52.528 119.696,53.953 119.956,55.381 120.215,55.832 120.475,55.117 120.734,55.147 
					120.994,55.047 121.253,55.714 121.513,56.701 121.772,56.878 122.031,56.385 122.291,55.763 122.55,55.332 122.81,54.596 
					123.069,53.223 123.329,53.646 123.588,53.615 123.847,47.629 124.107,38.494 124.367,35.257 124.625,36.121 124.885,40.899 
					125.145,44.039 125.404,45.977 125.664,47.26 125.923,48.614 126.182,49.754 126.442,51.425 126.702,53.735 126.961,55.398 
					127.22,57.152 127.479,56.027 127.739,54.212 127.999,54.666 128.258,55.947 128.518,56.903 128.777,57.683 129.036,58.485 
					129.296,58.167 129.555,57.77 129.814,57.598 130.074,57.505 130.333,57.354 130.593,57.426 130.853,57.398 131.111,57.459 
					131.371,57.411 131.631,57.206 131.89,57.085 132.149,57.167 132.409,57.211 132.668,57.377 132.928,57.326 133.188,57.206 
					133.447,57.063 133.706,54.83 133.966,44.054 134.225,34.327 134.484,31.876 134.744,33.868 135.003,39.018 135.263,41.847 
					135.522,42.66 135.782,43.418 136.041,44.61 136.3,46.671 136.56,49.996 136.819,54.302 137.079,55.412 137.338,53.884 
					137.598,52.051 137.857,54.545 138.117,56.832 138.376,55.47 138.635,54.763 138.895,56.099 139.154,56.56 139.414,57.978 
					139.673,58.726 139.933,58.841 140.192,58.792 140.452,58.475 140.711,58.231 140.971,58.344 141.23,58.07 141.489,57.546 
					141.749,57.334 142.008,57.303 142.268,57.306 142.527,57.542 142.787,57.155 143.046,57.239 143.306,56.942 143.564,56.965 
					143.824,56.924 144.084,56.916 144.343,56.629 144.603,56.478 144.862,56.437 145.121,56.286 145.381,56.347 145.641,56.421 
					145.899,56.875 146.159,56.67 146.419,49.742 146.678,35.675 146.938,29.136 147.197,28.829 147.457,33.342 147.716,37.382 
					147.975,39.702 148.235,40.758 148.494,42.165 148.753,43.91 149.013,47.12 149.272,51.428 149.532,50.547 149.792,46.951 
					150.051,51.359 150.31,53.32 150.57,53.453 150.829,56.675 151.088,56.962 151.348,56.206 151.607,56.844 151.867,57.818 
					152.126,59.041 152.386,59.297 152.645,59.187 				"/>
				<g clip-path="url(#SVGID_2_)">
					<text transform="matrix(1.0025 0 0 1 44.958 78.1426)" fill="#0000FF" font-family="'Arial-BoldMT'" font-size="7.5326">Closed-loop stimulation</text>
				</g>
				
					<polyline clip-path="url(#SVGID_2_)" fill="none" stroke="#0000FF" stroke-width="0.5002" stroke-linejoin="round" stroke-miterlimit="10" points="
					23.185,118.012 23.445,118.012 23.705,118.012 23.963,118.012 24.223,118.012 24.482,118.012 24.742,118.012 25.001,118.012 
					25.261,118.012 25.521,118.012 25.78,118.012 26.039,118.012 26.299,118.012 26.558,118.012 26.817,118.012 27.077,118.012 
					27.336,118.012 27.596,118.012 27.855,118.012 28.114,118.012 28.374,118.012 28.634,118.012 28.893,118.012 29.152,81.033 
					29.412,81.033 29.671,81.033 29.931,81.033 30.19,81.033 30.45,81.033 30.709,81.033 30.969,81.033 31.228,81.033 
					31.487,81.033 31.747,118.012 32.006,118.012 32.266,118.012 32.525,118.012 32.785,118.012 33.044,118.012 33.303,118.012 
					33.563,118.012 33.822,118.012 34.082,118.012 34.341,118.012 34.601,118.012 34.86,118.012 35.12,118.012 35.379,118.012 
					35.638,118.012 35.898,118.012 36.157,118.012 36.417,118.012 36.676,118.012 36.936,118.012 37.195,118.012 37.455,118.012 
					37.714,118.012 37.973,118.012 38.233,118.012 38.492,81.033 38.752,81.033 39.011,81.033 39.271,81.033 39.53,81.033 
					39.79,81.033 40.049,81.033 40.309,81.033 40.567,81.033 40.827,81.033 41.087,118.012 41.346,118.012 41.605,118.012 
					41.865,118.012 42.124,118.012 42.384,118.012 42.644,118.012 42.902,118.012 43.162,118.012 43.422,118.012 43.681,118.012 
					43.94,118.012 44.2,118.012 44.459,118.012 44.719,118.012 44.978,118.012 45.238,118.012 45.497,118.012 45.756,118.012 
					46.016,118.012 46.275,118.012 46.535,118.012 46.794,118.012 47.054,81.033 47.313,81.033 47.573,81.033 47.832,81.033 
					48.091,81.033 48.351,81.033 48.61,81.033 48.87,81.033 49.129,81.033 49.389,81.033 49.648,118.012 49.908,118.012 
					50.167,118.012 50.426,118.012 50.686,118.012 50.945,118.012 51.205,118.012 51.464,118.012 51.724,118.012 51.983,118.012 
					52.242,118.012 52.502,118.012 52.762,118.012 53.021,118.012 53.28,118.012 53.54,118.012 53.799,118.012 54.059,118.012 
					54.318,118.012 54.577,118.012 54.837,118.012 55.097,118.012 55.355,118.012 55.615,81.033 55.875,81.033 56.134,81.033 
					56.394,81.033 56.653,81.033 56.912,81.033 57.172,81.033 57.431,81.033 57.691,81.033 57.95,81.033 58.209,118.012 
					58.469,118.012 58.729,118.012 58.988,118.012 59.248,118.012 59.507,118.012 59.766,118.012 60.026,118.012 60.285,118.012 
					60.544,118.012 60.804,118.012 61.063,118.012 61.323,118.012 61.583,118.012 61.842,118.012 62.101,118.012 62.361,118.012 
					62.62,118.012 62.879,118.012 63.139,118.012 63.398,118.012 63.658,118.012 63.917,118.012 64.177,118.012 64.436,118.012 
					64.695,118.012 64.955,118.012 65.214,118.012 65.474,118.012 65.733,118.012 65.993,118.012 66.252,81.033 66.512,81.033 
					66.771,81.033 67.03,81.033 67.29,81.033 67.55,81.033 67.809,81.033 68.068,81.033 68.328,81.033 68.587,81.033 
					68.847,118.012 69.106,118.012 69.365,118.012 69.625,118.012 69.884,118.012 70.144,118.012 70.403,118.012 70.663,118.012 
					70.922,118.012 71.182,118.012 71.441,118.012 71.701,118.012 71.959,118.012 72.219,118.012 72.479,118.012 72.738,118.012 
					72.998,118.012 73.257,118.012 73.516,118.012 73.776,118.012 74.036,118.012 74.294,118.012 74.554,118.012 74.814,118.012 
					75.073,118.012 75.333,118.012 75.592,118.012 75.852,118.012 76.111,118.012 76.37,118.012 76.63,118.012 76.889,118.012 
					77.148,118.012 77.408,118.012 77.667,118.012 77.927,118.012 78.187,118.012 78.446,118.012 78.705,118.012 78.965,118.012 
					79.224,118.012 79.483,118.012 79.743,118.012 80.002,118.012 80.262,118.012 80.521,118.012 80.781,118.012 81.04,118.012 
					81.3,118.012 81.559,118.012 81.818,118.012 82.078,118.012 82.337,118.012 82.597,118.012 82.856,118.012 83.116,118.012 
					83.375,118.012 83.634,118.012 83.894,118.012 84.153,118.012 84.413,118.012 84.672,118.012 84.932,118.012 85.191,118.012 
					85.451,118.012 85.71,118.012 85.969,118.012 86.229,118.012 86.489,118.012 86.748,118.012 87.007,118.012 87.267,118.012 
					87.526,118.012 87.786,118.012 88.045,118.012 88.304,118.012 88.564,118.012 88.823,118.012 89.083,118.012 89.342,118.012 
					89.602,118.012 89.861,118.012 90.121,118.012 90.38,118.012 90.64,118.012 90.899,118.012 91.158,118.012 91.418,118.012 
					91.677,118.012 91.937,118.012 92.196,118.012 92.455,118.012 92.715,118.012 92.975,118.012 93.233,118.012 93.493,118.012 
					93.753,118.012 94.012,118.012 94.271,118.012 94.531,118.012 94.79,118.012 95.05,118.012 95.31,118.012 95.569,118.012 
					95.828,118.012 96.087,118.012 96.347,118.012 96.606,118.012 96.866,118.012 97.125,118.012 97.385,118.012 97.644,118.012 
					97.904,118.012 98.163,118.012 98.422,118.012 98.682,118.012 98.941,118.012 99.201,118.012 99.46,118.012 99.72,118.012 
					99.979,118.012 100.239,118.012 100.498,118.012 100.757,118.012 101.017,118.012 101.276,118.012 101.536,118.012 
					101.795,118.012 102.055,118.012 102.314,118.012 102.574,118.012 102.833,118.012 103.092,118.012 103.352,118.012 
					103.611,118.012 103.871,81.033 104.13,81.033 104.39,81.033 104.649,81.033 104.908,81.033 105.168,81.033 105.428,81.033 
					105.687,81.033 105.946,81.033 106.206,81.033 106.465,118.012 106.725,118.012 106.984,118.012 107.243,118.012 
					107.503,118.012 107.762,118.012 108.021,118.012 108.281,118.012 108.541,118.012 108.8,118.012 109.06,118.012 
					109.319,118.012 109.579,118.012 109.838,118.012 110.097,118.012 110.357,118.012 110.616,118.012 110.875,81.033 
					111.135,81.033 111.395,81.033 111.654,81.033 111.914,81.033 112.172,81.033 112.432,81.033 112.692,81.033 112.951,81.033 
					113.21,81.033 113.47,118.012 113.729,118.012 113.989,118.012 114.249,118.012 114.508,118.012 114.767,118.012 
					115.027,118.012 115.286,118.012 115.545,118.012 115.805,118.012 116.064,118.012 116.324,118.012 116.583,118.012 
					116.843,118.012 117.102,118.012 117.361,118.012 117.621,81.033 117.881,81.033 118.14,81.033 118.399,81.033 118.659,81.033 
					118.918,81.033 119.178,81.033 119.438,81.033 119.696,81.033 119.956,81.033 120.215,118.012 120.475,118.012 120.734,118.012 
					120.994,118.012 121.253,118.012 121.513,118.012 121.772,118.012 122.031,118.012 122.291,118.012 122.55,118.012 
					122.81,118.012 123.069,118.012 123.329,118.012 123.588,118.012 123.847,118.012 124.107,118.012 124.367,118.012 
					124.625,118.012 124.885,81.033 125.145,81.033 125.404,81.033 125.664,81.033 125.923,81.033 126.182,81.033 126.442,81.033 
					126.702,81.033 126.961,81.033 127.22,81.033 127.479,118.012 127.739,118.012 127.999,118.012 128.258,118.012 
					128.518,118.012 128.777,118.012 129.036,118.012 129.296,118.012 129.555,118.012 129.814,118.012 130.074,118.012 
					130.333,118.012 130.593,118.012 130.853,118.012 131.111,118.012 131.371,118.012 131.631,118.012 131.89,118.012 
					132.149,118.012 132.409,118.012 132.668,118.012 132.928,118.012 133.188,118.012 133.447,118.012 133.706,118.012 
					133.966,118.012 134.225,118.012 134.484,118.012 134.744,81.033 135.003,81.033 135.263,81.033 135.522,81.033 135.782,81.033 
					136.041,81.033 136.3,81.033 136.56,81.033 136.819,81.033 137.079,81.033 137.338,118.012 137.598,118.012 137.857,118.012 
					138.117,118.012 138.376,118.012 138.635,118.012 138.895,118.012 139.154,118.012 139.414,118.012 139.673,118.012 
					139.933,118.012 140.192,118.012 140.452,118.012 140.711,118.012 140.971,118.012 141.23,118.012 141.489,118.012 
					141.749,118.012 142.008,118.012 142.268,118.012 142.527,118.012 142.787,118.012 143.046,118.012 143.306,118.012 
					143.564,118.012 143.824,118.012 144.084,118.012 144.343,118.012 144.603,118.012 144.862,118.012 145.121,118.012 
					145.381,118.012 145.641,118.012 145.899,118.012 146.159,118.012 146.419,118.012 146.678,118.012 146.938,118.012 
					147.197,118.012 147.457,81.033 147.716,81.033 147.975,81.033 148.235,81.033 148.494,81.033 148.753,81.033 149.013,81.033 
					149.272,81.033 149.532,81.033 149.792,81.033 150.051,118.012 150.31,118.012 150.57,118.012 150.829,118.012 151.088,118.012 
					151.348,118.012 151.607,118.012 151.867,118.012 152.126,118.012 152.386,118.012 152.645,118.012 				"/>
				<g clip-path="url(#SVGID_2_)">
					<text transform="matrix(1.0025 0 0 1 26.1274 136.2524)" fill="#FF0000" font-family="'Arial-BoldMT'" font-size="7.5326">Responsive open-loop stimulation</text>
				</g>
				
					<polyline clip-path="url(#SVGID_2_)" fill="none" stroke="#FF0000" stroke-width="0.5002" stroke-linejoin="round" stroke-miterlimit="10" points="
					23.185,176.709 23.445,176.709 23.705,176.709 23.963,176.709 24.223,176.709 24.482,176.709 24.742,176.709 25.001,176.709 
					25.261,176.709 25.521,176.709 25.78,176.709 26.039,176.709 26.299,176.709 26.558,176.709 26.817,176.709 27.077,176.709 
					27.336,176.709 27.596,176.709 27.855,139.143 28.114,139.143 28.374,139.143 28.634,139.143 28.893,139.143 29.152,139.143 
					29.412,139.143 29.671,139.143 29.931,139.143 30.19,139.143 30.45,139.143 30.709,176.709 30.969,176.709 31.228,176.709 
					31.487,176.709 31.747,176.709 32.006,176.709 32.266,176.709 32.525,176.709 32.785,176.709 33.044,176.709 33.303,176.709 
					33.563,176.709 33.822,176.709 34.082,176.709 34.341,176.709 34.601,176.709 34.86,176.709 35.12,176.709 35.379,176.709 
					35.638,176.709 35.898,176.709 36.157,176.709 36.417,176.709 36.676,176.709 36.936,176.709 37.195,176.709 37.455,176.709 
					37.714,176.709 37.973,176.709 38.233,176.709 38.492,176.709 38.752,176.709 39.011,176.709 39.271,176.709 39.53,176.709 
					39.79,139.143 40.049,139.143 40.309,139.143 40.567,139.143 40.827,139.143 41.087,139.143 41.346,139.143 41.605,139.143 
					41.865,139.143 42.124,139.143 42.384,139.143 42.644,176.709 42.902,176.709 43.162,176.709 43.422,176.709 43.681,176.709 
					43.94,176.709 44.2,176.709 44.459,176.709 44.719,176.709 44.978,176.709 45.238,176.709 45.497,176.709 45.756,176.709 
					46.016,176.709 46.275,176.709 46.535,176.709 46.794,176.709 47.054,176.709 47.313,176.709 47.573,176.709 47.832,176.709 
					48.091,176.709 48.351,176.709 48.61,176.709 48.87,176.709 49.129,176.709 49.389,176.709 49.648,176.709 49.908,176.709 
					50.167,176.709 50.426,176.709 50.686,176.709 50.945,176.709 51.205,176.709 51.464,139.143 51.724,139.143 51.983,139.143 
					52.242,139.143 52.502,139.143 52.762,139.143 53.021,139.143 53.28,139.143 53.54,139.143 53.799,139.143 54.059,139.143 
					54.318,176.709 54.577,176.709 54.837,176.709 55.097,176.709 55.355,176.709 55.615,176.709 55.875,176.709 56.134,176.709 
					56.394,176.709 56.653,176.709 56.912,176.709 57.172,176.709 57.431,176.709 57.691,176.709 57.95,176.709 58.209,176.709 
					58.469,176.709 58.729,176.709 58.988,176.709 59.248,176.709 59.507,176.709 59.766,176.709 60.026,176.709 60.285,176.709 
					60.544,176.709 60.804,176.709 61.063,176.709 61.323,176.709 61.583,176.709 61.842,176.709 62.101,176.709 62.361,176.709 
					62.62,176.709 62.879,176.709 63.139,176.709 63.398,139.143 63.658,139.143 63.917,139.143 64.177,139.143 64.436,139.143 
					64.695,139.143 64.955,139.143 65.214,139.143 65.474,139.143 65.733,139.143 65.993,139.143 66.252,176.709 66.512,176.709 
					66.771,176.709 67.03,176.709 67.29,176.709 67.55,176.709 67.809,176.709 68.068,176.709 68.328,176.709 68.587,176.709 
					68.847,176.709 69.106,176.709 69.365,176.709 69.625,176.709 69.884,176.709 70.144,176.709 70.403,176.709 70.663,176.709 
					70.922,176.709 71.182,176.709 71.441,176.709 71.701,176.709 71.959,176.709 72.219,176.709 72.479,176.709 72.738,176.709 
					72.998,176.709 73.257,176.709 73.516,176.709 73.776,176.709 74.036,176.709 74.294,176.709 74.554,176.709 74.814,176.709 
					75.073,139.143 75.333,139.143 75.592,139.143 75.852,139.143 76.111,139.143 76.37,139.143 76.63,139.143 76.889,139.143 
					77.148,139.143 77.408,139.143 77.667,139.143 77.927,176.709 78.187,176.709 78.446,176.709 78.705,176.709 78.965,176.709 
					79.224,176.709 79.483,176.709 79.743,176.709 80.002,176.709 80.262,176.709 80.521,176.709 80.781,176.709 81.04,176.709 
					81.3,176.709 81.559,176.709 81.818,176.709 82.078,176.709 82.337,176.709 82.597,176.709 82.856,176.709 83.116,176.709 
					83.375,176.709 83.634,176.709 83.894,176.709 84.153,176.709 84.413,176.709 84.672,176.709 84.932,176.709 85.191,176.709 
					85.451,176.709 85.71,176.709 85.969,176.709 86.229,176.709 86.489,176.709 86.748,176.709 87.007,139.143 87.267,139.143 
					87.526,139.143 87.786,139.143 88.045,139.143 88.304,139.143 88.564,139.143 88.823,139.143 89.083,139.143 89.342,139.143 
					89.602,139.143 89.861,176.709 90.121,176.709 90.38,176.709 90.64,176.709 90.899,176.709 91.158,176.709 91.418,176.709 
					91.677,176.709 91.937,176.709 92.196,176.709 92.455,176.709 92.715,176.709 92.975,176.709 93.233,176.709 93.493,176.709 
					93.753,176.709 94.012,176.709 94.271,176.709 94.531,176.709 94.79,176.709 95.05,176.709 95.31,176.709 95.569,176.709 
					95.828,176.709 96.087,176.709 96.347,176.709 96.606,176.709 96.866,176.709 97.125,176.709 97.385,176.709 97.644,176.709 
					97.904,176.709 98.163,176.709 98.422,176.709 98.682,139.143 98.941,139.143 99.201,139.143 99.46,139.143 99.72,139.143 
					99.979,139.143 100.239,139.143 100.498,139.143 100.757,139.143 101.017,139.143 101.276,139.143 101.536,176.709 
					101.795,176.709 102.055,176.709 102.314,176.709 102.574,176.709 102.833,176.709 103.092,176.709 103.352,176.709 
					103.611,176.709 103.871,176.709 104.13,176.709 104.39,176.709 104.649,176.709 104.908,176.709 105.168,176.709 
					105.428,176.709 105.687,176.709 105.946,176.709 106.206,176.709 106.465,176.709 106.725,176.709 106.984,176.709 
					107.243,176.709 107.503,176.709 107.762,176.709 108.021,176.709 108.281,176.709 108.541,176.709 108.8,176.709 
					109.06,176.709 109.319,176.709 109.579,176.709 109.838,176.709 110.097,176.709 110.357,176.709 110.616,139.143 
					110.875,139.143 111.135,139.143 111.395,139.143 111.654,139.143 111.914,139.143 112.172,139.143 112.432,139.143 
					112.692,139.143 112.951,139.143 113.21,139.143 113.47,176.709 113.729,176.709 113.989,176.709 114.249,176.709 
					114.508,176.709 114.767,176.709 115.027,176.709 115.286,176.709 115.545,176.709 115.805,176.709 116.064,176.709 
					116.324,176.709 116.583,176.709 116.843,176.709 117.102,176.709 117.361,176.709 117.621,176.709 117.881,176.709 
					118.14,176.709 118.399,176.709 118.659,176.709 118.918,176.709 119.178,176.709 119.438,176.709 119.696,176.709 
					119.956,176.709 120.215,176.709 120.475,176.709 120.734,176.709 120.994,176.709 121.253,176.709 121.513,176.709 
					121.772,176.709 122.031,176.709 122.291,139.143 122.55,139.143 122.81,139.143 123.069,139.143 123.329,139.143 
					123.588,139.143 123.847,139.143 124.107,139.143 124.367,139.143 124.625,139.143 124.885,139.143 125.145,176.709 
					125.404,176.709 125.664,176.709 125.923,176.709 126.182,176.709 126.442,176.709 126.702,176.709 126.961,176.709 
					127.22,176.709 127.479,176.709 127.739,176.709 127.999,176.709 128.258,176.709 128.518,176.709 128.777,176.709 
					129.036,176.709 129.296,176.709 129.555,176.709 129.814,176.709 130.074,176.709 130.333,176.709 130.593,176.709 
					130.853,176.709 131.111,176.709 131.371,176.709 131.631,176.709 131.89,176.709 132.149,176.709 132.409,176.709 
					132.668,176.709 132.928,176.709 133.188,176.709 133.447,176.709 133.706,176.709 133.966,176.709 134.225,139.143 
					134.484,139.143 134.744,139.143 135.003,139.143 135.263,139.143 135.522,139.143 135.782,139.143 136.041,139.143 
					136.3,139.143 136.56,139.143 136.819,139.143 137.079,176.709 137.338,176.709 137.598,176.709 137.857,176.709 
					138.117,176.709 138.376,176.709 138.635,176.709 138.895,176.709 139.154,176.709 139.414,176.709 139.673,176.709 
					139.933,176.709 140.192,176.709 140.452,176.709 140.711,176.709 140.971,176.709 141.23,176.709 141.489,176.709 
					141.749,176.709 142.008,176.709 142.268,176.709 142.527,176.709 142.787,176.709 143.046,176.709 143.306,176.709 
					143.564,176.709 143.824,176.709 144.084,176.709 144.343,176.709 144.603,176.709 144.862,176.709 145.121,176.709 
					145.381,176.709 145.641,176.709 145.899,139.143 146.159,139.143 146.419,139.143 146.678,139.143 146.938,139.143 
					147.197,139.143 147.457,139.143 147.716,139.143 147.975,139.143 148.235,139.143 148.494,139.143 148.753,176.709 
					149.013,176.709 149.272,176.709 149.532,176.709 149.792,176.709 150.051,176.709 150.31,176.709 150.57,176.709 
					150.829,176.709 151.088,176.709 151.348,176.709 151.607,176.709 151.867,176.709 152.126,176.709 152.386,176.709 
					152.645,176.709 				"/>
			</g>
		</g>
		<path fill="none" stroke="#000000" stroke-width="0.75" stroke-miterlimit="10" d="M299.9,74.635c0,2.667-1.678,4.83-3.746,4.83
			H180.878c-2.068,0-3.745-2.163-3.745-4.83V25.78c0-2.667,1.676-4.829,3.745-4.829h115.276c2.068,0,3.746,2.162,3.746,4.829V74.635
			z"/>
		<path fill="none" stroke="#000000" stroke-width="0.75" stroke-miterlimit="10" d="M299.955,171.878
			c0,2.666-1.684,4.829-3.76,4.829H180.894c-2.076,0-3.76-2.163-3.76-4.829v-54.222c0-2.668,1.684-4.829,3.76-4.829h115.301
			c2.076,0,3.76,2.161,3.76,4.829V171.878z"/>
		<text transform="matrix(1 0 0 1 209.3853 15.0234)" font-family="'Arial-BoldMT'" font-size="8.8123">Hippocampus</text>
		<g>
			<path fill="#009944" d="M252.15,133.258c0,4.967-4.621,8.995-10.323,8.995h-7.045c-5.701,0-10.321-4.028-10.321-8.995l0,0
				c0-4.969,4.62-8.999,10.321-8.999h7.045C247.53,124.259,252.15,128.29,252.15,133.258L252.15,133.258z"/>
			<text transform="matrix(1 0 0 1 224.7002 135.8657)" fill="#FFFFFF" font-family="'ArialMT'" font-size="9.7857">GABA</text>
		</g>
		<g>
			<path fill="#E4007F" d="M279.662,163.158c0,4.967-4.623,8.994-10.324,8.994h-7.045c-5.699,0-10.322-4.027-10.322-8.994l0,0
				c0-4.97,4.623-8.998,10.322-8.998h7.045C275.039,154.16,279.662,158.188,279.662,163.158L279.662,163.158z"/>
			<text transform="matrix(1 0 0 1 256.8418 165.7671)" fill="#FFFFFF" font-family="'ArialMT'" font-size="9.7857">Glut</text>
		</g>
		<g>
			<path fill="#00A0E9" d="M224.634,163.158c0,4.965-4.622,8.994-10.325,8.994h-7.043c-5.702,0-10.325-4.029-10.325-8.994l0,0
				c0-4.97,4.623-8.998,10.325-8.998h7.043C225.454,154.16,224.634,165.487,224.634,163.158L224.634,163.158z"/>
			<text transform="matrix(1 0 0 1 201.8149 165.7671)" fill="#FFFFFF" font-family="'ArialMT'" font-size="9.7857">ACh</text>
		</g>
		<path fill="none" stroke="#000000" stroke-width="0.75" stroke-miterlimit="10" d="M356.254,74.635c0,2.667-0.684,4.83-1.523,4.83
			h-46.867c-0.84,0-1.521-2.163-1.521-4.83V25.78c0-2.667,0.682-4.829,1.521-4.829h46.867c0.84,0,1.523,2.162,1.523,4.829V74.635z"
			/>
		<text transform="matrix(1 0 0 1 309.748 15.0234)" font-family="'Arial-BoldMT'" font-size="8.8123">Neocortex</text>
		<g>
			<polygon fill="#E4007F" points="269.484,48.388 277.736,29.016 285.99,48.388 			"/>
			<text transform="matrix(1 0 0 1 274.4727 46.5439)" fill="#FFFFFF" font-family="'ArialMT'" font-size="9.7857">P</text>
		</g>
		<g>
			<path fill="#009844" d="M252.15,55.541c0,4.966-4.621,8.994-10.323,8.994h-7.045c-5.701,0-10.321-4.028-10.321-8.994l0,0
				c0-4.969,4.62-8.998,10.321-8.998h7.045C247.53,46.543,252.15,50.572,252.15,55.541L252.15,55.541z"/>
			<text transform="matrix(1 0 0 1 224.7002 58.147)" fill="#FFFFFF" font-family="'ArialMT'" font-size="9.7857">GABA</text>
		</g>
		<g>
			<g>
				
					<line fill="none" stroke="#009844" stroke-width="0.8222" stroke-miterlimit="10" x1="238.305" y1="124.259" x2="238.305" y2="66.997"/>
				<g>
					<rect x="235.633" y="66.585" fill="#009844" width="5.344" height="0.822"/>
				</g>
			</g>
		</g>
		
			<line fill="none" stroke="#009844" stroke-width="0.8222" stroke-miterlimit="10" x1="238.305" y1="46.543" x2="238.305" y2="38.702"/>
		<g>
			<g>
				
					<line fill="none" stroke="#009844" stroke-width="0.8222" stroke-miterlimit="10" x1="238.305" y1="38.702" x2="269.073" y2="38.702"/>
				<g>
					<rect x="268.662" y="36.03" fill="#009844" width="0.822" height="5.344"/>
				</g>
			</g>
		</g>
		
			<line fill="none" stroke="#E4007F" stroke-width="0.8222" stroke-miterlimit="10" x1="277.738" y1="48.388" x2="277.738" y2="61.413"/>
		<g>
			<g>
				
					<line fill="none" stroke="#E4007F" stroke-width="0.8222" stroke-miterlimit="10" x1="277.738" y1="61.413" x2="317.212" y2="61.413"/>
				<g>
					<path fill="#E4007F" d="M322.174,61.413c-2.335,0.866-5.231,2.345-7.027,3.91l1.414-3.91l-1.414-3.909
						C316.942,59.069,319.839,60.547,322.174,61.413z"/>
				</g>
			</g>
		</g>
		
			<line fill="none" stroke="#E4007F" stroke-width="0.8222" stroke-miterlimit="10" x1="265.816" y1="154.598" x2="265.988" y2="59.082"/>
		
			<line fill="none" stroke="#00A0E9" stroke-width="0.8222" stroke-miterlimit="10" x1="210.795" y1="154.16" x2="210.795" y2="29.016"/>
		<g>
			<g>
				
					<line fill="none" stroke="#00A0E9" stroke-width="0.8222" stroke-miterlimit="10" x1="210.795" y1="29.016" x2="268.141" y2="29.016"/>
				<g>
					<polygon fill="#00A0E9" points="272.748,32.073 267.587,28.999 272.748,25.924 					"/>
				</g>
			</g>
		</g>
		<g>
			<g>
				
					<line fill="none" stroke="#00A0E9" stroke-width="0.8222" stroke-miterlimit="10" x1="210.795" y1="55.539" x2="216.266" y2="55.539"/>
				<g>
					<polygon fill="#00A0E9" points="220.873,58.596 215.711,55.522 220.873,52.447 					"/>
				</g>
			</g>
		</g>
		<g>
			<g>
				
					<line fill="none" stroke="#00A0E9" stroke-width="0.8222" stroke-miterlimit="10" x1="210.795" y1="133.256" x2="217.746" y2="133.256"/>
				<g>
					<polygon fill="#00A0E9" points="222.354,136.314 217.192,133.24 222.354,130.165 					"/>
				</g>
			</g>
		</g>
		
			<line fill="none" stroke="#009844" stroke-width="0.8222" stroke-miterlimit="10" x1="227.582" y1="136.711" x2="217.126" y2="143.545"/>
		<g>
			<g>
				
					<line fill="none" stroke="#009844" stroke-width="0.8222" stroke-miterlimit="10" x1="217.126" y1="143.267" x2="217.126" y2="152.395"/>
				<g>
					<rect x="214.454" y="151.984" fill="#009844" width="5.344" height="0.822"/>
				</g>
			</g>
		</g>
		
			<line fill="none" stroke="#009844" stroke-width="0.8222" stroke-miterlimit="10" x1="248.741" y1="136.432" x2="259.602" y2="144.072"/>
		<g>
			<g>
				
					<line fill="none" stroke="#009844" stroke-width="0.8222" stroke-miterlimit="10" x1="259.602" y1="144.072" x2="259.602" y2="152.395"/>
				<g>
					<rect x="256.93" y="151.984" fill="#009844" width="5.344" height="0.822"/>
				</g>
			</g>
		</g>
		<g>
			<g>
				
					<line fill="none" stroke="#00A0E9" stroke-width="0.8222" stroke-miterlimit="10" x1="222.213" y1="159.048" x2="246.253" y2="159.048"/>
				<g>
					<polygon fill="#00A0E9" points="250.86,162.106 245.699,159.032 250.86,155.957 					"/>
				</g>
			</g>
		</g>
		<g>
			<g>
				
					<line fill="none" stroke="#E4007F" stroke-width="0.8222" stroke-miterlimit="10" x1="253.412" y1="166.763" x2="230.378" y2="166.763"/>
				<g>
					<polygon fill="#E4007F" points="225.771,163.706 230.932,166.78 225.771,169.855 					"/>
				</g>
			</g>
		</g>
		<g>
			<g>
				
					<line fill="none" stroke="#E4007F" stroke-width="0.8222" stroke-miterlimit="10" x1="265.816" y1="133.256" x2="258.486" y2="133.256"/>
				<g>
					<polygon fill="#E4007F" points="253.879,130.199 259.04,133.273 253.879,136.348 					"/>
				</g>
			</g>
		</g>
		<g>
			<g>
				
					<line fill="none" stroke="#E4007F" stroke-width="0.8222" stroke-miterlimit="10" x1="277.738" y1="51.623" x2="260.23" y2="51.623"/>
				<g>
					<polygon fill="#E4007F" points="255.623,48.565 260.784,51.64 255.623,54.714 					"/>
				</g>
			</g>
		</g>
		<text transform="matrix(1 0 0 1 217.7319 187.8677)" font-family="'Arial-BoldMT'" font-size="8.8123">Medial septum</text>
		<text transform="matrix(1 0 0 1 317.6914 29.521)"><tspan x="0" y="0" font-family="'ArialMT'" font-size="7.8332">Seizure</tspan><tspan x="-7.408" y="7.833" font-family="'ArialMT'" font-size="7.8332">propagation</tspan></text>
		<polyline fill="none" stroke="#231815" stroke-width="0.593" stroke-linejoin="round" stroke-miterlimit="10" points="
			366.75,150.866 367.213,150.29 367.672,149.292 368.135,148.753 368.596,148.293 369.059,147.794 369.52,148.601 369.979,148.945 
			370.439,146.833 370.904,142.956 371.363,137.424 371.822,130.206 372.285,124.908 372.748,120.953 373.209,122.375 
			373.668,125.943 374.131,129.553 374.594,133.279 375.051,136.542 375.514,139.577 375.975,140.959 376.436,140.537 
			376.896,140.577 377.357,140.345 377.82,141.229 378.279,141.496 378.742,141.726 379.205,141.88 379.664,142.111 
			380.127,143.417 380.588,144.721 381.049,146.296 381.512,147.333 381.971,147.063 382.432,146.373 382.895,146.065 
			383.355,146.642 383.816,147.063 384.277,146.526 384.74,146.412 385.201,145.222 385.66,144.76 386.121,145.376 386.586,145.95 
			387.043,145.029 387.506,146.564 387.965,146.951 388.43,144.875 388.889,142.342 389.35,138.807 389.813,132.895 
			390.273,124.331 390.732,118.686 391.197,115.232 391.656,116.497 392.117,120.643 392.578,124.6 393.039,128.441 
			393.504,130.974 393.965,133.623 394.426,135.237 394.889,136.773 395.35,137.503 395.809,137.771 396.27,137.31 396.732,137.349 
			397.191,138.771 397.652,139.308 398.115,140.421 398.576,142.495 399.037,142.917 399.498,143.762 399.961,143.956 
			400.42,145.069 400.881,146.027 401.342,145.95 401.803,146.22 402.266,145.222 402.729,144.837 403.188,143.225 403.648,138.695 
			404.111,133.086 404.57,126.711 405.031,120.875 405.494,116.114 405.955,115.461 406.416,119.838 406.877,123.065 
			407.338,126.329 407.799,129.899 408.262,133.469 408.725,135.66 409.186,138.541 409.645,139.5 410.105,138.962 410.568,138.501 
			411.029,139.115 411.49,139.115 411.951,139.92 412.412,140.882 412.873,141.611 413.336,141.65 413.793,141.152 414.258,141.804 
			414.717,143.532 415.18,145.913 415.641,148.178 416.102,148.524 416.563,148.1 417.023,147.372 417.482,146.642 417.947,145.296 
			418.406,144.415 418.865,144.376 419.332,144.261 419.791,143.07 420.252,140.421 420.717,134.007 421.176,125.677 
			421.637,117.879 422.098,114.656 422.557,115.116 423.02,119.301 423.48,123.219 423.941,127.749 424.404,131.282 
			424.865,133.702 425.326,137.618 425.787,138.079 426.248,138.387 426.713,138.308 427.172,139.805 427.631,140.038 
			428.092,140.613 428.553,141.958 429.016,141.726 429.477,142.418 429.939,143.493 430.4,145.029 430.861,146.564 
			431.322,148.023 431.783,149.406 		"/>
		
			<line fill="none" stroke="#009844" stroke-width="1.4625" stroke-linejoin="round" stroke-miterlimit="10" x1="375.826" y1="158.699" x2="388.934" y2="158.699"/>
		
			<line fill="none" stroke="#009844" stroke-width="1.4625" stroke-linejoin="round" stroke-miterlimit="10" x1="393.307" y1="158.699" x2="404.205" y2="158.699"/>
		
			<line fill="none" stroke="#009844" stroke-width="1.4625" stroke-linejoin="round" stroke-miterlimit="10" x1="408.334" y1="158.699" x2="419.982" y2="158.699"/>
		
			<line fill="none" stroke="#009844" stroke-width="1.4625" stroke-linejoin="round" stroke-miterlimit="10" x1="424.662" y1="158.699" x2="438.963" y2="158.699"/>
		<text transform="matrix(1 0 0 1 336.4277 108.9341)" font-family="'ArialMT'" font-size="8.8123">HPC electrographic seizures</text>
		<text transform="matrix(1 0 0 1 331.0996 160.0337)" fill="#009844" font-family="'ArialMT'" font-size="7.8332">MS GABA</text>
		<text transform="matrix(1 0 0 1 345.7266 173.1313)"><tspan x="0" y="0" font-family="'ArialMT'" font-size="8.8123">Phase-locked activation</tspan><tspan x="3.191" y="8.813" font-family="'ArialMT'" font-size="8.8123">for anti-seizure effects</tspan></text>
		<text transform="matrix(1 0 0 1 399.416 72.0386)" font-family="'Arial-BoldMT'" font-size="8.8123">Motor seizures</text>
		<text transform="matrix(1 0 0 1 363.541 30.5005)"><tspan x="0" y="0" fill="#0000FF" font-family="'Arial-BoldMT'" font-size="8.8123">Anti-seizure effects</tspan><tspan x="81.293" y="-0.351" fill="#0000FF" font-family="'Arial-BoldMT'" font-size="7.8332"> (Closed-loop)</tspan><tspan x="63.051" y="8.952" font-family="'Arial-BoldMT'" font-size="7.8332">or</tspan><tspan x="4.131" y="19.583" fill="#FF0000" font-family="'Arial-BoldMT'" font-size="8.8123">Pro-seizure effects </tspan><tspan x="85.434" y="19.232" fill="#FF0000" font-family="'Arial-BoldMT'" font-size="7.8332">(Open-loop)</tspan></text>
		<g>
			<polygon fill="#E4007F" points="323.045,60.329 331.297,40.958 339.549,60.329 			"/>
			<text transform="matrix(1 0 0 1 328.0332 58.4863)" fill="#FFFFFF" font-family="'ArialMT'" font-size="9.7857">P</text>
		</g>
		
			<line fill="none" stroke="#E4007F" stroke-width="0.8222" stroke-miterlimit="10" x1="331.6" y1="56.076" x2="331.6" y2="69.101"/>
		<g>
			<g>
				
					<line fill="none" stroke="#E4007F" stroke-width="0.8222" stroke-miterlimit="10" x1="331.6" y1="69.101" x2="378.907" y2="69.101"/>
				<g>
					<path fill="#E4007F" d="M383.869,69.101c-2.335,0.866-5.231,2.345-7.027,3.91l1.414-3.91l-1.414-3.909
						C378.638,66.757,381.534,68.235,383.869,69.101z"/>
				</g>
			</g>
		</g>
		<g>
			
				<line fill="none" stroke="#221714" stroke-width="0.641" stroke-miterlimit="10" x1="146.322" y1="126.853" x2="196.116" y2="155.849"/>
			<path fill="none" stroke="#221714" stroke-width="0.641" stroke-miterlimit="10" d="M146.322,126.853
				c0,0-2.623-1.932-2.419-2.269c0.205-0.336,3.896,1.667,3.66,1.821c-0.236,0.153-3.278-2.409-2.933-2.859
				c0.349-0.451,4.003,1.471,3.653,1.833c-0.351,0.359-3.025-2.655-2.926-2.874c0.101-0.215,2.921,1.554,2.921,1.554l49.795,28.996"
				/>
		</g>
		<polygon fill="#F39800" points="196.032,142.886 208.004,113.849 198.497,123.174 205.064,104.729 191.082,133.485 
			200.242,127.387 		"/>
		<polygon fill="#F39800" points="187.708,136.602 189.843,105.267 183.788,117.126 184.162,97.551 180.03,129.259 186.782,120.567 
					"/>
		<g>
			<path fill="none" stroke="#000000" stroke-width="0.75" stroke-miterlimit="10" stroke-dasharray="2.9825,2.9825" d="
				M466.129,177.813c0,6.488-5.26,11.75-11.75,11.75H330.146c-6.49,0-11.75-5.262-11.75-11.75v-68.512
				c0-6.49,5.26-11.75,11.75-11.75h124.232c6.49,0,11.75,5.26,11.75,11.75V177.813z"/>
		</g>
		<g>
			<g>
				
					<line fill="none" stroke="#E4007F" stroke-width="0.8222" stroke-miterlimit="10" x1="293.875" y1="36.867" x2="290.598" y2="36.867"/>
				<g>
					<polygon fill="#E4007F" points="285.99,33.81 291.151,36.884 285.99,39.959 					"/>
				</g>
			</g>
		</g>
		<g>
			<g>
				
					<line fill="none" stroke="#E4007F" stroke-width="0.8222" stroke-miterlimit="10" x1="265.988" y1="59.082" x2="260.23" y2="59.082"/>
				<g>
					<polygon fill="#E4007F" points="255.623,56.024 260.784,59.099 255.623,62.173 					"/>
				</g>
			</g>
		</g>
		
			<line fill="none" stroke="#E4007F" stroke-width="0.8222" stroke-miterlimit="10" x1="293.875" y1="36.867" x2="293.875" y2="59.694"/>
		
			<line fill="none" stroke="#E4007F" stroke-width="0.8222" stroke-miterlimit="10" x1="265.816" y1="70.403" x2="293.875" y2="70.403"/>
		
			<line fill="none" stroke="#E4007F" stroke-width="0.8222" stroke-miterlimit="10" x1="293.875" y1="70.403" x2="293.875" y2="63.099"/>
	</g>
</g>
</svg>
