<?xml version="1.0" encoding="utf-8"?>
<!-- Generator: Adobe Illustrator 16.0.0, SVG Export Plug-In . SVG Version: 6.00 Build 0)  -->
<!DOCTYPE svg PUBLIC "-//W3C//DTD SVG 1.1//EN" "http://www.w3.org/Graphics/SVG/1.1/DTD/svg11.dtd">
<svg version="1.1" xmlns="http://www.w3.org/2000/svg" xmlns:xlink="http://www.w3.org/1999/xlink" x="0px" y="0px"
	 width="498.897px" height="425.197px" viewBox="0 0 498.897 425.197" enable-background="new 0 0 498.897 425.197"
	 xml:space="preserve">
<g id="レイヤー_1">
	<text transform="matrix(1 0 0 1 6.4141 11.582)" font-family="'Arial-BoldMT'" font-size="12">A</text>
	<text transform="matrix(1 0 0 1 259.7568 11.582)" font-family="'Arial-BoldMT'" font-size="12">B</text>
	<text transform="matrix(1 0 0 1 6.4141 174.8008)" font-family="'Arial-BoldMT'" font-size="12">C</text>
	<text transform="matrix(1 0 0 1 186.9307 174.8008)" font-family="'Arial-BoldMT'" font-size="12">D</text>
	<text transform="matrix(1 0 0 1 352.1709 174.8008)" font-family="'Arial-BoldMT'" font-size="12">E</text>
	<text transform="matrix(1 0 0 1 406.0693 176.3965)" font-family="'ArialMT'" font-size="9">Pain</text>
	<g>
		<path fill="none" stroke="#000000" stroke-miterlimit="10" d="M438.5,211.895c0,6.628-5.373,12-12,12h-22.848
			c-6.627,0-12-5.372-12-12v-5.643c0-6.628,5.373-12,12-12H426.5c6.627,0,12,5.372,12,12V211.895z"/>
		<text transform="matrix(1 0 0 1 408.3262 211.4741)" font-family="'ArialMT'" font-size="9">MS</text>
	</g>
	<g>
		<path fill="none" stroke="#000000" stroke-miterlimit="10" d="M438.5,267.822c0,6.628-5.373,12-12,12h-22.848
			c-6.627,0-12-5.372-12-12v-5.644c0-6.627,5.373-12,12-12H426.5c6.627,0,12,5.373,12,12V267.822z"/>
		<text transform="matrix(1 0 0 1 400.0723 267.4009)" font-family="'ArialMT'" font-size="9">RN etc.</text>
	</g>
	<g>
		<path fill="none" stroke="#000000" stroke-miterlimit="10" d="M438.5,323.748c0,6.628-5.373,12-12,12h-22.848
			c-6.627,0-12-5.372-12-12v-5.643c0-6.628,5.373-12,12-12H426.5c6.627,0,12,5.372,12,12V323.748z"/>
		<text transform="matrix(1 0 0 1 408.3262 323.3267)" font-family="'ArialMT'" font-size="9">SC</text>
	</g>
	<g>
		
			<line fill="none" stroke="#000000" stroke-width="0.7484" stroke-miterlimit="10" x1="360.813" y1="187.291" x2="397.016" y2="214.623"/>
		<path fill="none" stroke="#000000" stroke-width="0.7484" stroke-miterlimit="10" d="M360.813,187.291
			c0,0-2.834-2.654-2.547-3.023c0.291-0.371,4.38,2.52,4.08,2.67c-0.302,0.148-3.545-3.314-3.072-3.799
			c0.477-0.484,4.533,2.305,4.068,2.684c-0.465,0.377-3.211-3.568-3.061-3.813c0.149-0.241,3.24,2.248,3.24,2.248l36.204,27.33"/>
	</g>
	<polygon fill="#F39800" points="387.002,196.353 392.689,182.562 388.173,186.991 391.293,178.23 384.65,191.887 389.002,188.991 	
		"/>
	<text transform="matrix(1 0 0 1 445.4297 286.0562)"><tspan x="0" y="0" font-family="'ArialMT'" font-size="7">descending</tspan><tspan x="2.924" y="8" font-family="'ArialMT'" font-size="7">inhibittory</tspan><tspan x="6.819" y="16" font-family="'ArialMT'" font-size="7">system</tspan></text>
	<g>
		<g>
			<line fill="none" stroke="#000000" stroke-miterlimit="10" x1="415.076" y1="224.074" x2="415.076" y2="240.947"/>
			<g>
				<g>
					<polygon fill="#FFFFFF" points="411.357,246.551 415.097,240.273 418.836,246.551 					"/>
					<path d="M410.697,246.926l4.399-7.387l4.399,7.387H410.697z M415.097,241.006l-3.079,5.17h6.159L415.097,241.006z"/>
				</g>
			</g>
		</g>
	</g>
	<g>
		<g>
			<line fill="none" stroke="#000000" stroke-miterlimit="10" x1="415.076" y1="280.491" x2="415.076" y2="302.386"/>
			<g>
				<rect x="411.826" y="301.886" width="6.5" height="1"/>
			</g>
		</g>
	</g>
	<text transform="matrix(1 0 0 1 448.3486 322.7925)" font-family="'ArialMT'" font-size="7">analgesia</text>
	<text transform="matrix(1 0 0 1 57.1733 176.3965)" font-family="'ArialMT'" font-size="9">Schizophrenia</text>
	<g>
		<path fill="none" stroke="#000000" stroke-miterlimit="10" d="M109.115,227.164c0,6.629-5.373,12-12,12H74.268
			c-6.628,0-12-5.371-12-12v-5.643c0-6.627,5.372-12,12-12h22.847c6.627,0,12,5.373,12,12V227.164z"/>
		<text transform="matrix(1 0 0 1 76.1904 226.7427)" font-family="'ArialMT'" font-size="9">HPC</text>
	</g>
	<g>
		<path fill="none" stroke="#000000" stroke-miterlimit="10" d="M109.115,323.749c0,6.627-5.373,12-12,12H74.268
			c-6.628,0-12-5.373-12-12v-5.645c0-6.627,5.372-12,12-12h22.847c6.627,0,12,5.373,12,12V323.749z"/>
		<text transform="matrix(1 0 0 1 78.9409 323.3267)" font-family="'ArialMT'" font-size="9">MS</text>
	</g>
	<text transform="matrix(1 0 0 1 143.0903 199.5161)" font-family="'ArialMT'" font-size="7">psychosis?</text>
	<text transform="matrix(1 0 0 1 110.4751 187.2817)" font-family="'ArialMT'" font-size="7">increased γ</text>
	<text transform="matrix(1 0 0 1 44.3716 252.8472)"><tspan x="0" y="0" font-family="'ArialMT'" font-size="7">normalizing</tspan><tspan x="7.785" y="8" font-family="'ArialMT'" font-size="7">HPC γ</tspan></text>
	<g>
		
			<line fill="none" stroke="#000000" stroke-width="0.7484" stroke-miterlimit="10" x1="32.579" y1="295.332" x2="68.781" y2="322.664"/>
		<path fill="none" stroke="#000000" stroke-width="0.7484" stroke-miterlimit="10" d="M32.579,295.332c0,0-2.834-2.654-2.547-3.023
			c0.29-0.371,4.379,2.52,4.079,2.67c-0.301,0.148-3.544-3.314-3.072-3.799c0.477-0.484,4.534,2.305,4.069,2.684
			c-0.465,0.377-3.211-3.568-3.062-3.813c0.15-0.24,3.241,2.248,3.241,2.248l36.204,27.33"/>
	</g>
	<polygon fill="#F39800" points="60.6,307.059 66.287,293.269 61.771,297.698 64.89,288.937 58.25,302.594 62.6,299.698 	"/>
	<g>
		<g>
			<line fill="none" stroke="#000000" stroke-miterlimit="10" x1="85.691" y1="306.573" x2="85.691" y2="248.7"/>
			<g>
				<g>
					<polygon fill="#FFFFFF" points="89.41,243.095 85.671,249.374 81.931,243.095 					"/>
					<path d="M90.07,242.72l-4.399,7.387l-4.399-7.387H90.07z M85.671,248.64l3.079-5.17h-6.159L85.671,248.64z"/>
				</g>
			</g>
		</g>
	</g>
	<g>
		<g>
			<line fill="none" stroke="#000000" stroke-miterlimit="10" x1="115.593" y1="197.649" x2="134.475" y2="197.649"/>
			<g>
				<path d="M139.001,197.649c-2.13,0.791-4.772,2.139-6.411,3.567l1.29-3.567l-1.29-3.566
					C134.229,195.511,136.872,196.86,139.001,197.649z"/>
			</g>
		</g>
	</g>
	<g>
		<g>
			<polyline fill="none" stroke="#000000" stroke-width="0.5" stroke-linejoin="round" stroke-miterlimit="10" points="
				63.627,197.648 63.663,196.835 63.699,196.029 63.734,195.254 63.77,194.515 63.806,193.825 63.841,193.2 63.877,192.64 
				63.913,192.165 63.948,191.773 63.984,191.477 64.02,191.278 64.055,191.183 64.091,191.189 64.126,191.297 64.162,191.509 
				64.198,191.818 64.233,192.218 64.269,192.707 64.305,193.273 64.339,193.908 64.375,194.605 64.411,195.347 64.447,196.131 
				64.482,196.935 64.518,197.75 64.554,198.565 64.589,199.366 64.625,200.137 64.66,200.874 64.696,201.552 64.731,202.172 
				64.767,202.721 64.803,203.187 64.838,203.567 64.875,203.851 64.91,204.038 64.945,204.121 64.981,204.099 65.017,203.977 
				65.052,203.756 65.087,203.435 65.123,203.022 65.159,202.525 65.194,201.95 65.23,201.304 65.266,200.602 65.301,199.854 
				65.337,199.069 65.373,198.261 			"/>
			<polyline fill="none" stroke="#000000" stroke-width="0.5" stroke-linejoin="round" stroke-miterlimit="10" points="
				65.337,199.069 65.373,198.261 65.408,197.445 65.443,196.63 65.479,195.833 65.515,195.065 65.551,194.337 65.586,193.662 
				65.622,193.052 65.657,192.513 65.693,192.058 65.729,191.691 65.765,191.419 65.8,191.246 65.835,191.175 65.871,191.208 
				65.907,191.341 65.942,191.576 65.978,191.912 66.014,192.333 66.049,192.839 66.085,193.427 66.12,194.077 66.156,194.787 
				66.191,195.541 66.228,196.33 66.263,197.137 66.298,197.956 66.334,198.768 66.37,199.561 66.405,200.325 66.441,201.047 
				66.477,201.713 66.512,202.317 66.547,202.848 66.583,203.291 66.619,203.647 66.654,203.907 66.69,204.068 66.726,204.125 
				66.761,204.08 66.797,203.932 66.833,203.684 66.868,203.34 66.903,202.907 66.939,202.387 66.975,201.794 67.011,201.133 
				67.046,200.418 67.082,199.658 67.118,198.868 67.153,198.057 			"/>
			<polyline fill="none" stroke="#000000" stroke-width="0.5" stroke-linejoin="round" stroke-miterlimit="10" points="
				67.118,198.868 67.153,198.057 67.189,197.242 67.225,196.427 67.26,195.636 67.296,194.879 67.331,194.164 67.367,193.501 
				67.402,192.91 67.438,192.391 67.474,191.958 67.509,191.613 67.545,191.367 67.581,191.218 67.616,191.173 67.652,191.23 
				67.688,191.39 67.723,191.652 67.758,192.005 67.795,192.451 67.83,192.98 67.865,193.583 67.901,194.251 67.937,194.971 
				67.972,195.736 68.008,196.531 68.043,197.341 68.079,198.16 68.115,198.969 68.15,199.756 68.186,200.512 68.222,201.221 
				68.258,201.872 68.293,202.457 68.328,202.965 68.363,203.389 68.399,203.721 68.435,203.957 68.471,204.09 68.506,204.122 
				68.542,204.051 68.577,203.879 68.613,203.606 68.648,203.24 68.685,202.784 68.72,202.247 68.756,201.633 68.791,200.961 
				68.827,200.231 68.863,199.465 68.898,198.667 68.934,197.853 			"/>
			<polyline fill="none" stroke="#000000" stroke-width="0.5" stroke-linejoin="round" stroke-miterlimit="10" points="
				68.898,198.667 68.934,197.853 68.97,197.036 69.005,196.228 69.04,195.446 69.077,194.695 69.112,193.994 69.147,193.349 
				69.184,192.773 69.219,192.275 69.254,191.863 69.289,191.542 69.326,191.32 69.361,191.197 69.396,191.177 69.433,191.26 
				69.468,191.447 69.504,191.73 69.539,192.109 69.575,192.578 69.61,193.126 69.646,193.744 69.683,194.426 69.718,195.16 
				69.752,195.931 69.789,196.73 69.824,197.548 69.859,198.364 69.896,199.169 69.932,199.948 69.967,200.693 70.002,201.389 
				70.038,202.025 70.073,202.59 70.108,203.08 70.145,203.481 70.181,203.79 70.216,204 70.251,204.11 70.287,204.116 
				70.323,204.016 70.357,203.819 70.394,203.525 70.43,203.133 70.465,202.657 70.501,202.098 70.537,201.474 70.572,200.784 
				70.606,200.043 70.644,199.266 70.679,198.463 70.714,197.648 			"/>
			
				<line fill="none" stroke="#000000" stroke-width="0.5" stroke-linejoin="round" stroke-miterlimit="10" x1="70.679" y1="198.463" x2="70.714" y2="197.648"/>
		</g>
		<g>
			<polyline fill="none" stroke="#000000" stroke-width="0.5" stroke-linejoin="round" stroke-miterlimit="10" points="
				75.975,197.648 76.01,196.835 76.046,196.029 76.082,195.254 76.117,194.515 76.153,193.825 76.188,193.2 76.224,192.64 
				76.26,192.165 76.295,191.773 76.331,191.477 76.367,191.278 76.402,191.183 76.438,191.189 76.474,191.297 76.509,191.509 
				76.545,191.818 76.58,192.218 76.616,192.707 76.652,193.273 76.687,193.908 76.723,194.605 76.758,195.347 76.794,196.131 
				76.829,196.935 76.865,197.75 76.901,198.565 76.936,199.366 76.972,200.137 77.007,200.874 77.043,201.552 77.079,202.172 
				77.114,202.721 77.15,203.187 77.185,203.567 77.222,203.851 77.257,204.038 77.292,204.121 77.328,204.099 77.364,203.977 
				77.399,203.756 77.435,203.435 77.47,203.022 77.506,202.525 77.542,201.95 77.577,201.304 77.613,200.602 77.648,199.854 
				77.684,199.069 77.72,198.261 			"/>
			<polyline fill="none" stroke="#000000" stroke-width="0.5" stroke-linejoin="round" stroke-miterlimit="10" points="
				77.684,199.069 77.72,198.261 77.755,197.445 77.791,196.63 77.826,195.833 77.862,195.065 77.898,194.337 77.933,193.662 
				77.969,193.052 78.004,192.513 78.04,192.058 78.076,191.691 78.112,191.419 78.147,191.246 78.183,191.175 78.218,191.208 
				78.254,191.341 78.289,191.576 78.325,191.912 78.361,192.333 78.396,192.839 78.432,193.427 78.467,194.077 78.503,194.787 
				78.539,195.541 78.575,196.33 78.61,197.137 78.646,197.956 78.681,198.768 78.717,199.561 78.752,200.325 78.788,201.047 
				78.824,201.713 78.859,202.317 78.894,202.848 78.931,203.291 78.966,203.647 79.001,203.907 79.038,204.068 79.073,204.125 
				79.108,204.08 79.144,203.932 79.18,203.684 79.215,203.34 79.25,202.907 79.287,202.387 79.322,201.794 79.358,201.133 
				79.394,200.418 79.429,199.658 79.465,198.868 79.5,198.057 			"/>
			<polyline fill="none" stroke="#000000" stroke-width="0.5" stroke-linejoin="round" stroke-miterlimit="10" points="
				79.465,198.868 79.5,198.057 79.536,197.242 79.572,196.427 79.607,195.636 79.643,194.879 79.678,194.164 79.714,193.501 
				79.749,192.91 79.786,192.391 79.821,191.958 79.856,191.613 79.892,191.367 79.928,191.218 79.963,191.173 80,191.23 
				80.035,191.39 80.07,191.652 80.105,192.005 80.142,192.451 80.177,192.98 80.212,193.583 80.248,194.251 80.284,194.971 
				80.319,195.736 80.355,196.531 80.39,197.341 80.426,198.16 80.462,198.969 80.498,199.756 80.533,200.512 80.569,201.221 
				80.605,201.872 80.64,202.457 80.675,202.965 80.71,203.389 80.747,203.721 80.782,203.957 80.818,204.09 80.853,204.122 
				80.889,204.051 80.924,203.879 80.96,203.606 80.996,203.24 81.032,202.784 81.067,202.247 81.103,201.633 81.138,200.961 
				81.174,200.231 81.21,199.465 81.246,198.667 81.281,197.853 			"/>
			<polyline fill="none" stroke="#000000" stroke-width="0.5" stroke-linejoin="round" stroke-miterlimit="10" points="
				81.246,198.667 81.281,197.853 81.317,197.036 81.352,196.228 81.387,195.446 81.424,194.695 81.459,193.994 81.495,193.349 
				81.531,192.773 81.566,192.275 81.601,191.863 81.636,191.542 81.673,191.32 81.708,191.197 81.744,191.177 81.78,191.26 
				81.815,191.447 81.851,191.73 81.886,192.109 81.922,192.578 81.958,193.126 81.993,193.744 82.03,194.426 82.065,195.16 
				82.099,195.931 82.136,196.73 82.171,197.548 82.207,198.364 82.243,199.169 82.279,199.948 82.314,200.693 82.349,201.389 
				82.385,202.025 82.42,202.59 82.456,203.08 82.492,203.481 82.528,203.79 82.563,204 82.598,204.11 82.634,204.116 
				82.67,204.016 82.705,203.819 82.741,203.525 82.777,203.133 82.812,202.657 82.848,202.098 82.884,201.474 82.919,200.784 
				82.954,200.043 82.991,199.266 83.026,198.463 83.061,197.648 			"/>
			
				<line fill="none" stroke="#000000" stroke-width="0.5" stroke-linejoin="round" stroke-miterlimit="10" x1="83.026" y1="198.463" x2="83.061" y2="197.648"/>
		</g>
		<g>
			<polyline fill="none" stroke="#000000" stroke-width="0.5" stroke-linejoin="round" stroke-miterlimit="10" points="
				88.322,197.648 88.357,196.835 88.394,196.029 88.429,195.254 88.464,194.515 88.5,193.825 88.536,193.2 88.571,192.64 
				88.607,192.165 88.643,191.773 88.678,191.477 88.714,191.278 88.75,191.183 88.785,191.189 88.821,191.297 88.856,191.509 
				88.892,191.818 88.927,192.218 88.963,192.707 88.999,193.273 89.034,193.908 89.07,194.605 89.105,195.347 89.141,196.131 
				89.176,196.935 89.212,197.75 89.248,198.565 89.283,199.366 89.319,200.137 89.354,200.874 89.39,201.552 89.426,202.172 
				89.461,202.721 89.497,203.187 89.532,203.567 89.569,203.851 89.604,204.038 89.64,204.121 89.675,204.099 89.711,203.977 
				89.747,203.756 89.782,203.435 89.817,203.022 89.854,202.525 89.889,201.95 89.924,201.304 89.96,200.602 89.996,199.854 
				90.031,199.069 90.067,198.261 			"/>
			<polyline fill="none" stroke="#000000" stroke-width="0.5" stroke-linejoin="round" stroke-miterlimit="10" points="
				90.031,199.069 90.067,198.261 90.103,197.445 90.138,196.63 90.173,195.833 90.209,195.065 90.245,194.337 90.28,193.662 
				90.316,193.052 90.352,192.513 90.387,192.058 90.423,191.691 90.459,191.419 90.494,191.246 90.53,191.175 90.565,191.208 
				90.601,191.341 90.636,191.576 90.672,191.912 90.708,192.333 90.743,192.839 90.779,193.427 90.814,194.077 90.85,194.787 
				90.886,195.541 90.922,196.33 90.957,197.137 90.993,197.956 91.028,198.768 91.064,199.561 91.1,200.325 91.135,201.047 
				91.171,201.713 91.207,202.317 91.241,202.848 91.278,203.291 91.313,203.647 91.349,203.907 91.385,204.068 91.42,204.125 
				91.456,204.08 91.491,203.932 91.527,203.684 91.563,203.34 91.598,202.907 91.634,202.387 91.669,201.794 91.705,201.133 
				91.741,200.418 91.776,199.658 91.812,198.868 91.848,198.057 			"/>
			<polyline fill="none" stroke="#000000" stroke-width="0.5" stroke-linejoin="round" stroke-miterlimit="10" points="
				91.812,198.868 91.848,198.057 91.883,197.242 91.919,196.427 91.955,195.636 91.99,194.879 92.025,194.164 92.061,193.501 
				92.096,192.91 92.133,192.391 92.168,191.958 92.203,191.613 92.239,191.367 92.275,191.218 92.31,191.173 92.347,191.23 
				92.382,191.39 92.417,191.652 92.453,192.005 92.489,192.451 92.524,192.98 92.56,193.583 92.595,194.251 92.631,194.971 
				92.667,195.736 92.702,196.531 92.737,197.341 92.773,198.16 92.81,198.969 92.845,199.756 92.88,200.512 92.916,201.221 
				92.952,201.872 92.987,202.457 93.022,202.965 93.058,203.389 93.094,203.721 93.129,203.957 93.165,204.09 93.2,204.122 
				93.236,204.051 93.271,203.879 93.308,203.606 93.343,203.24 93.379,202.784 93.414,202.247 93.45,201.633 93.485,200.961 
				93.521,200.231 93.558,199.465 93.593,198.667 93.628,197.853 			"/>
			<polyline fill="none" stroke="#000000" stroke-width="0.5" stroke-linejoin="round" stroke-miterlimit="10" points="
				93.593,198.667 93.628,197.853 93.664,197.036 93.699,196.228 93.734,195.446 93.771,194.695 93.807,193.994 93.842,193.349 
				93.878,192.773 93.913,192.275 93.948,191.863 93.983,191.542 94.021,191.32 94.056,191.197 94.091,191.177 94.127,191.26 
				94.162,191.447 94.198,191.73 94.233,192.109 94.27,192.578 94.305,193.126 94.34,193.744 94.377,194.426 94.412,195.16 
				94.446,195.931 94.483,196.73 94.519,197.548 94.554,198.364 94.59,199.169 94.626,199.948 94.661,200.693 94.696,201.389 
				94.732,202.025 94.768,202.59 94.803,203.08 94.839,203.481 94.875,203.79 94.91,204 94.945,204.11 94.981,204.116 
				95.018,204.016 95.052,203.819 95.088,203.525 95.124,203.133 95.159,202.657 95.195,202.098 95.231,201.474 95.267,200.784 
				95.301,200.043 95.338,199.266 95.373,198.463 95.408,197.648 			"/>
			
				<line fill="none" stroke="#000000" stroke-width="0.5" stroke-linejoin="round" stroke-miterlimit="10" x1="95.373" y1="198.463" x2="95.408" y2="197.648"/>
		</g>
		<g>
			<polyline fill="none" stroke="#000000" stroke-width="0.5" stroke-linejoin="round" stroke-miterlimit="10" points="
				100.669,197.648 100.705,196.835 100.741,196.029 100.776,195.254 100.812,194.515 100.847,193.825 100.883,193.2 
				100.918,192.64 100.954,192.165 100.99,191.773 101.025,191.477 101.061,191.278 101.097,191.183 101.132,191.189 
				101.168,191.297 101.203,191.509 101.239,191.818 101.274,192.218 101.31,192.707 101.346,193.273 101.381,193.908 
				101.417,194.605 101.453,195.347 101.488,196.131 101.523,196.935 101.56,197.75 101.595,198.565 101.63,199.366 
				101.666,200.137 101.702,200.874 101.737,201.552 101.773,202.172 101.809,202.721 101.844,203.187 101.879,203.567 
				101.916,203.851 101.951,204.038 101.987,204.121 102.022,204.099 102.058,203.977 102.094,203.756 102.129,203.435 
				102.165,203.022 102.201,202.525 102.236,201.95 102.271,201.304 102.307,200.602 102.343,199.854 102.378,199.069 
				102.415,198.261 			"/>
			<polyline fill="none" stroke="#000000" stroke-width="0.5" stroke-linejoin="round" stroke-miterlimit="10" points="
				102.378,199.069 102.415,198.261 102.45,197.445 102.485,196.63 102.521,195.833 102.557,195.065 102.592,194.337 
				102.627,193.662 102.664,193.052 102.699,192.513 102.734,192.058 102.771,191.691 102.806,191.419 102.841,191.246 
				102.877,191.175 102.913,191.208 102.948,191.341 102.983,191.576 103.02,191.912 103.055,192.333 103.09,192.839 
				103.126,193.427 103.162,194.077 103.197,194.787 103.233,195.541 103.269,196.33 103.304,197.137 103.34,197.956 
				103.375,198.768 103.411,199.561 103.447,200.325 103.482,201.047 103.518,201.713 103.554,202.317 103.588,202.848 
				103.625,203.291 103.66,203.647 103.696,203.907 103.732,204.068 103.767,204.125 103.803,204.08 103.838,203.932 
				103.875,203.684 103.91,203.34 103.945,202.907 103.981,202.387 104.017,201.794 104.052,201.133 104.088,200.418 
				104.124,199.658 104.159,198.868 104.195,198.057 			"/>
			<polyline fill="none" stroke="#000000" stroke-width="0.5" stroke-linejoin="round" stroke-miterlimit="10" points="
				104.159,198.868 104.195,198.057 104.23,197.242 104.266,196.427 104.302,195.636 104.337,194.879 104.373,194.164 
				104.408,193.501 104.443,192.91 104.48,192.391 104.515,191.958 104.55,191.613 104.586,191.367 104.622,191.218 
				104.657,191.173 104.694,191.23 104.729,191.39 104.765,191.652 104.8,192.005 104.836,192.451 104.872,192.98 104.907,193.583 
				104.942,194.251 104.978,194.971 105.014,195.736 105.049,196.531 105.084,197.341 105.121,198.16 105.157,198.969 
				105.192,199.756 105.227,200.512 105.263,201.221 105.299,201.872 105.334,202.457 105.37,202.965 105.405,203.389 
				105.441,203.721 105.476,203.957 105.512,204.09 105.547,204.122 105.583,204.051 105.619,203.879 105.655,203.606 
				105.69,203.24 105.726,202.784 105.761,202.247 105.797,201.633 105.833,200.961 105.869,200.231 105.905,199.465 
				105.94,198.667 105.975,197.853 			"/>
			<polyline fill="none" stroke="#000000" stroke-width="0.5" stroke-linejoin="round" stroke-miterlimit="10" points="
				105.94,198.667 105.975,197.853 106.011,197.036 106.046,196.228 106.082,195.446 106.119,194.695 106.154,193.994 
				106.189,193.349 106.225,192.773 106.26,192.275 106.295,191.863 106.331,191.542 106.368,191.32 106.403,191.197 
				106.438,191.177 106.474,191.26 106.509,191.447 106.545,191.73 106.581,192.109 106.617,192.578 106.652,193.126 
				106.687,193.744 106.724,194.426 106.759,195.16 106.793,195.931 106.831,196.73 106.866,197.548 106.901,198.364 
				106.937,199.169 106.973,199.948 107.008,200.693 107.043,201.389 107.08,202.025 107.115,202.59 107.15,203.08 107.186,203.481 
				107.222,203.79 107.257,204 107.292,204.11 107.329,204.116 107.365,204.016 107.399,203.819 107.435,203.525 107.471,203.133 
				107.506,202.657 107.542,202.098 107.579,201.474 107.614,200.784 107.648,200.043 107.685,199.266 107.72,198.463 
				107.755,197.648 			"/>
			
				<line fill="none" stroke="#000000" stroke-width="0.5" stroke-linejoin="round" stroke-miterlimit="10" x1="107.72" y1="198.463" x2="107.755" y2="197.648"/>
		</g>
	</g>
	<g>
		
			<line fill="none" stroke="#000000" stroke-width="0.7484" stroke-miterlimit="10" x1="45.215" y1="117.219" x2="81.417" y2="144.55"/>
		<path fill="none" stroke="#000000" stroke-width="0.7484" stroke-miterlimit="10" d="M45.215,117.219c0,0-2.834-2.655-2.547-3.024
			c0.29-0.371,4.379,2.52,4.079,2.67c-0.301,0.147-3.544-3.314-3.072-3.799c0.477-0.485,4.534,2.304,4.069,2.683
			c-0.465,0.377-3.211-3.567-3.062-3.812c0.15-0.241,3.241,2.248,3.241,2.248l36.204,27.33"/>
	</g>
	<polygon fill="#F39800" points="72.023,127.487 77.71,113.696 73.195,118.125 76.314,109.364 69.673,123.021 74.023,120.125 	"/>
	<text transform="matrix(1 0 0 1 78.855 13.1772)"><tspan x="0" y="0" font-family="'ArialMT'" font-size="9">Alzheimer</tspan><tspan x="40.012" y="0" font-family="'ArialMT'" font-size="9" letter-spacing="4">’</tspan><tspan x="46.512" y="0" font-family="'ArialMT'" font-size="9">s disease</tspan></text>
	<g>
		<path fill="none" stroke="#000000" stroke-miterlimit="10" d="M56.598,45.025c0,6.628-5.373,12-12,12H21.751
			c-6.627,0-12-5.372-12-12v-5.643c0-6.628,5.373-12,12-12h22.847c6.627,0,12,5.372,12,12V45.025z"/>
		<text transform="matrix(1 0 0 1 24.1748 44.604)" font-family="'ArialMT'" font-size="9">PFC</text>
	</g>
	<g>
		<path fill="none" stroke="#000000" stroke-miterlimit="10" d="M123.68,137.776c0,6.628-5.373,12-12,12H88.833
			c-6.627,0-12-5.372-12-12v-5.644c0-6.627,5.373-12,12-12h22.847c6.627,0,12,5.373,12,12V137.776z"/>
		<text transform="matrix(1 0 0 1 90.2563 137.355)" font-family="'ArialMT'" font-size="9">NBM</text>
	</g>
	<g>
		<path fill="none" stroke="#000000" stroke-miterlimit="10" d="M171.091,137.776c0,6.627-5.373,12-12,12h-22.847
			c-6.627,0-12-5.373-12-12v-5.643c0-6.627,5.373-12,12-12h22.847c6.627,0,12,5.373,12,12V137.776z"/>
		<text transform="matrix(1 0 0 1 140.9175 137.3555)" font-family="'ArialMT'" font-size="9">MS</text>
	</g>
	<g>
		<path fill="none" stroke="#000000" stroke-miterlimit="10" d="M234.44,45.025c0,6.628-5.373,12-12,12h-22.847
			c-6.627,0-12-5.372-12-12v-5.643c0-6.628,5.373-12,12-12h22.847c6.627,0,12,5.372,12,12V45.025z"/>
		<text transform="matrix(1 0 0 1 201.5161 44.604)" font-family="'ArialMT'" font-size="9">HPC</text>
	</g>
	<text transform="matrix(1 0 0 1 110.1255 40.0708)"><tspan x="0" y="0" font-family="'ArialMT'" font-size="7">memory</tspan><tspan x="-8.571" y="8" font-family="'ArialMT'" font-size="7">enhancement</tspan></text>
	<text transform="matrix(1 0 0 1 158.8511 20.7007)" font-family="'ArialMT'" font-size="7">γ restration</text>
	<g>
		
			<line fill="none" stroke="#000000" stroke-width="0.7484" stroke-miterlimit="10" x1="201.668" y1="117.218" x2="165.465" y2="144.55"/>
		<path fill="none" stroke="#000000" stroke-width="0.7484" stroke-miterlimit="10" d="M201.668,117.218
			c0,0,2.834-2.654,2.547-3.023c-0.291-0.371-4.38,2.52-4.08,2.67c0.302,0.148,3.545-3.314,3.072-3.799
			c-0.477-0.484-4.533,2.305-4.068,2.684c0.465,0.377,3.211-3.568,3.061-3.813c-0.149-0.241-3.24,2.248-3.24,2.248l-36.204,27.33"/>
	</g>
	<polygon fill="#F39800" points="173.959,129.724 179.646,115.933 175.13,120.361 178.25,111.601 171.608,125.258 175.959,122.361 	
		"/>
	<text transform="matrix(1 0 0 1 33.3716 67.0146)" font-family="'ArialMT'" font-size="7">ACh</text>
	<g>
		<g>
			<line fill="none" stroke="#000000" stroke-miterlimit="10" x1="63.691" y1="42.204" x2="82.573" y2="42.204"/>
			<g>
				<path d="M87.1,42.204c-2.13,0.79-4.772,2.139-6.411,3.567l1.291-3.567l-1.291-3.566C82.327,40.066,84.97,41.414,87.1,42.204z"/>
			</g>
		</g>
	</g>
	<g>
		<g>
			<line fill="none" stroke="#000000" stroke-miterlimit="10" x1="181.163" y1="42.204" x2="162.281" y2="42.204"/>
			<g>
				<path d="M157.755,42.204c2.13-0.79,4.772-2.139,6.411-3.567l-1.291,3.567l1.291,3.566
					C162.527,44.341,159.885,42.993,157.755,42.204z"/>
			</g>
		</g>
	</g>
	<g>
		<g>
			<line fill="none" stroke="#000000" stroke-miterlimit="10" x1="97.1" y1="119.734" x2="57.845" y2="66.718"/>
			<g>
				<g>
					<polygon fill="#FFFFFF" points="57.498,60.001 58.229,67.272 51.488,64.452 					"/>
					<path d="M57.806,59.307l0.86,8.554l-7.931-3.318L57.806,59.307z M57.793,66.683l-0.602-5.987l-4.95,3.665L57.793,66.683z"/>
				</g>
			</g>
		</g>
	</g>
	<g>
		<g>
			<line fill="none" stroke="#000000" stroke-miterlimit="10" x1="154.404" y1="119.734" x2="193.659" y2="66.718"/>
			<g>
				<g>
					<polygon fill="#FFFFFF" points="199.982,64.427 193.241,67.248 193.972,59.977 					"/>
					<path d="M200.736,64.518l-7.931,3.319l0.86-8.555L200.736,64.518z M193.677,66.658l5.551-2.323l-4.95-3.665L193.677,66.658z"/>
				</g>
			</g>
		</g>
	</g>
	<g>
		<g>
			<line fill="none" stroke="#000000" stroke-miterlimit="10" x1="210.601" y1="57.024" x2="171.346" y2="110.041"/>
			<g>
				<g>
					<polygon fill="#FFFFFF" points="165.022,112.332 171.763,109.511 171.033,116.782 					"/>
					<path d="M164.269,112.241l7.931-3.319l-0.86,8.555L164.269,112.241z M171.327,110.101l-5.551,2.323l4.95,3.665L171.327,110.101
						z"/>
				</g>
			</g>
		</g>
	</g>
	<g>
		<polyline fill="none" stroke="#000000" stroke-width="0.75" stroke-linejoin="round" stroke-miterlimit="10" points="
			125.326,81.644 125.577,80.831 125.83,80.024 126.081,79.25 126.331,78.511 126.585,77.82 126.835,77.195 127.086,76.636 
			127.336,76.16 127.589,75.769 127.841,75.473 128.091,75.273 128.345,75.179 128.595,75.184 128.846,75.293 129.095,75.504 
			129.351,75.813 129.601,76.213 129.851,76.702 130.104,77.269 130.352,77.904 130.605,78.601 130.858,79.343 131.108,80.127 
			131.358,80.931 131.613,81.746 131.863,82.561 132.114,83.361 132.364,84.133 132.618,84.869 132.867,85.548 133.12,86.168 
			133.374,86.717 133.623,87.183 133.873,87.563 134.129,87.847 134.378,88.033 134.629,88.116 134.879,88.095 135.133,87.973 
			135.383,87.752 135.635,87.431 135.883,87.018 136.137,86.521 136.387,85.945 136.639,85.3 136.892,84.598 137.143,83.85 
			137.394,83.064 137.647,82.256 		"/>
		<polyline fill="none" stroke="#000000" stroke-width="0.75" stroke-linejoin="round" stroke-miterlimit="10" points="
			137.394,83.064 137.647,82.256 137.897,81.44 138.146,80.626 138.398,79.829 138.651,79.061 138.902,78.333 139.152,77.657 
			139.407,77.048 139.656,76.509 139.908,76.054 140.161,75.687 140.412,75.415 140.661,75.241 140.913,75.17 141.166,75.204 
			141.417,75.337 141.666,75.571 141.918,75.907 142.171,76.329 142.42,76.835 142.674,77.422 142.924,78.072 143.176,78.782 
			143.426,79.537 143.68,80.326 143.93,81.133 144.182,81.951 144.434,82.764 144.685,83.557 144.935,84.32 145.188,85.043 
			145.438,85.709 145.689,86.313 145.938,86.844 146.193,87.286 146.444,87.643 146.694,87.902 146.948,88.063 147.198,88.121 
			147.449,88.075 147.702,87.928 147.954,87.68 148.204,87.336 148.454,86.902 148.708,86.383 148.959,85.79 149.209,85.129 
			149.463,84.414 149.713,83.653 149.964,82.863 150.218,82.053 		"/>
		<polyline fill="none" stroke="#000000" stroke-width="0.75" stroke-linejoin="round" stroke-miterlimit="10" points="
			149.964,82.863 150.218,82.053 150.468,81.237 150.719,80.423 150.974,79.632 151.222,78.875 151.474,78.159 151.724,77.498 
			151.974,76.905 152.228,76.387 152.478,75.953 152.728,75.609 152.982,75.362 153.234,75.214 153.483,75.169 153.738,75.226 
			153.986,75.385 154.239,75.647 154.491,76.001 154.744,76.447 154.994,76.976 155.244,77.579 155.496,78.247 155.749,78.967 
			155.998,79.731 156.249,80.526 156.5,81.337 156.753,82.155 157.006,82.965 157.257,83.752 157.506,84.508 157.758,85.217 
			158.011,85.867 158.259,86.452 158.511,86.961 158.766,87.385 159.016,87.717 159.265,87.952 159.517,88.086 159.771,88.117 
			160.021,88.047 160.272,87.875 160.525,87.602 160.775,87.235 161.027,86.779 161.277,86.242 161.531,85.629 161.781,84.957 
			162.031,84.227 162.285,83.461 162.537,82.662 162.787,81.848 		"/>
		<polyline fill="none" stroke="#000000" stroke-width="0.75" stroke-linejoin="round" stroke-miterlimit="10" points="
			162.537,82.662 162.787,81.848 163.041,81.031 163.29,80.224 163.542,79.441 163.795,78.69 164.046,77.989 164.298,77.344 
			164.546,76.769 164.8,76.271 165.049,75.858 165.301,75.538 165.554,75.315 165.805,75.193 166.057,75.172 166.31,75.256 
			166.558,75.442 166.812,75.726 167.06,76.104 167.314,76.573 167.564,77.122 167.816,77.74 168.07,78.422 168.318,79.155 
			168.568,79.927 168.822,80.726 169.074,81.543 169.324,82.359 169.576,83.165 169.83,83.943 170.08,84.688 170.328,85.385 
			170.584,86.021 170.833,86.586 171.083,87.075 171.335,87.477 171.588,87.785 171.839,87.995 172.09,88.105 172.339,88.111 
			172.594,88.012 172.842,87.814 173.094,87.521 173.347,87.129 173.598,86.652 173.851,86.094 174.104,85.47 174.353,84.779 
			174.601,84.039 174.853,83.262 175.107,82.459 175.357,81.644 		"/>
		
			<line fill="none" stroke="#000000" stroke-width="0.75" stroke-linejoin="round" stroke-miterlimit="10" x1="175.107" y1="82.459" x2="175.357" y2="81.644"/>
	</g>
	<g>
		<polyline fill="none" stroke="#000000" stroke-width="0.5" stroke-linejoin="round" stroke-miterlimit="10" points="
			200.601,18.832 200.636,18.02 200.672,17.213 200.708,16.438 200.743,15.699 200.779,15.009 200.814,14.384 200.85,13.824 
			200.886,13.349 200.921,12.957 200.957,12.661 200.993,12.462 201.028,12.367 201.064,12.373 201.1,12.481 201.135,12.693 
			201.171,13.002 201.206,13.402 201.242,13.891 201.278,14.457 201.313,15.092 201.349,15.789 201.384,16.531 201.42,17.315 
			201.455,18.119 201.491,18.934 201.527,19.749 201.562,20.55 201.598,21.321 201.633,22.058 201.669,22.736 201.705,23.356 
			201.74,23.905 201.776,24.371 201.811,24.751 201.848,25.035 201.883,25.222 201.918,25.305 201.954,25.283 201.99,25.161 
			202.025,24.94 202.061,24.619 202.096,24.206 202.132,23.709 202.167,23.134 202.203,22.488 202.239,21.786 202.274,21.038 
			202.31,20.253 202.346,19.445 		"/>
		<polyline fill="none" stroke="#000000" stroke-width="0.5" stroke-linejoin="round" stroke-miterlimit="10" points="
			202.31,20.253 202.346,19.445 202.381,18.629 202.417,17.814 202.452,17.018 202.488,16.249 202.524,15.521 202.559,14.846 
			202.595,14.236 202.63,13.697 202.666,13.242 202.702,12.875 202.738,12.604 202.773,12.43 202.809,12.359 202.844,12.393 
			202.88,12.525 202.915,12.76 202.951,13.096 202.987,13.518 203.022,14.023 203.058,14.611 203.093,15.261 203.129,15.971 
			203.165,16.725 203.201,17.514 203.236,18.321 203.271,19.14 203.307,19.952 203.343,20.745 203.378,21.509 203.414,22.231 
			203.45,22.897 203.485,23.501 203.52,24.032 203.557,24.475 203.592,24.831 203.627,25.091 203.664,25.252 203.699,25.31 
			203.734,25.264 203.77,25.116 203.806,24.868 203.841,24.524 203.876,24.091 203.913,23.571 203.948,22.979 203.984,22.317 
			204.02,21.603 204.055,20.842 204.091,20.052 204.126,19.241 		"/>
		<polyline fill="none" stroke="#000000" stroke-width="0.5" stroke-linejoin="round" stroke-miterlimit="10" points="
			204.091,20.052 204.126,19.241 204.162,18.426 204.198,17.611 204.233,16.82 204.269,16.063 204.304,15.348 204.34,14.686 
			204.375,14.094 204.412,13.575 204.447,13.142 204.482,12.797 204.518,12.551 204.554,12.402 204.589,12.357 204.625,12.414 
			204.661,12.574 204.696,12.836 204.731,13.189 204.768,13.635 204.803,14.164 204.838,14.768 204.874,15.436 204.91,16.155 
			204.945,16.92 204.98,17.715 205.016,18.525 205.052,19.344 205.088,20.153 205.124,20.94 205.159,21.696 205.195,22.405 
			205.23,23.056 205.266,23.641 205.301,24.149 205.336,24.573 205.373,24.905 205.408,25.141 205.444,25.274 205.479,25.306 
			205.515,25.235 205.55,25.063 205.586,24.79 205.622,24.424 205.658,23.968 205.693,23.431 205.729,22.817 205.764,22.146 
			205.8,21.415 205.836,20.649 205.872,19.851 205.907,19.037 		"/>
		<polyline fill="none" stroke="#000000" stroke-width="0.5" stroke-linejoin="round" stroke-miterlimit="10" points="
			205.872,19.851 205.907,19.037 205.943,18.22 205.978,17.412 206.013,16.63 206.05,15.879 206.085,15.178 206.121,14.533 
			206.157,13.957 206.192,13.459 206.227,13.047 206.262,12.727 206.299,12.504 206.334,12.381 206.37,12.361 206.406,12.444 
			206.441,12.631 206.477,12.914 206.512,13.293 206.548,13.762 206.583,14.311 206.619,14.928 206.656,15.61 206.691,16.344 
			206.725,17.115 206.762,17.914 206.797,18.732 206.833,19.548 206.869,20.354 206.905,21.132 206.94,21.877 206.975,22.573 
			207.011,23.209 207.046,23.774 207.082,24.264 207.118,24.665 207.154,24.974 207.189,25.184 207.224,25.294 207.26,25.3 
			207.296,25.2 207.331,25.003 207.367,24.709 207.403,24.317 207.438,23.841 207.474,23.282 207.51,22.658 207.545,21.968 
			207.58,21.228 207.617,20.45 207.652,19.647 207.687,18.832 		"/>
		
			<line fill="none" stroke="#000000" stroke-width="0.5" stroke-linejoin="round" stroke-miterlimit="10" x1="207.652" y1="19.647" x2="207.687" y2="18.832"/>
	</g>
	<text transform="matrix(1 0 0 1 132.8335 69.9922)" font-family="'ArialMT'" font-size="7">θ restration</text>
	<g>
		<polyline fill="none" stroke="#000000" stroke-width="0.5" stroke-linejoin="round" stroke-miterlimit="10" points="
			215.942,18.832 215.978,18.019 216.014,17.212 216.049,16.438 216.084,15.699 216.12,15.008 216.156,14.383 216.191,13.824 
			216.227,13.348 216.263,12.957 216.298,12.661 216.334,12.461 216.37,12.367 216.405,12.373 216.441,12.481 216.476,12.693 
			216.512,13.001 216.547,13.402 216.583,13.89 216.619,14.457 216.654,15.091 216.69,15.789 216.726,16.531 216.761,17.315 
			216.796,18.119 216.833,18.933 216.868,19.749 216.903,20.55 216.939,21.321 216.975,22.058 217.01,22.735 217.046,23.356 
			217.082,23.905 217.117,24.37 217.152,24.751 217.189,25.034 217.224,25.222 217.26,25.304 217.295,25.282 217.331,25.161 
			217.367,24.94 217.402,24.618 217.438,24.206 217.474,23.708 217.509,23.134 217.544,22.487 217.58,21.786 217.616,21.038 
			217.651,20.253 217.688,19.445 		"/>
		<polyline fill="none" stroke="#000000" stroke-width="0.5" stroke-linejoin="round" stroke-miterlimit="10" points="
			217.651,20.253 217.688,19.445 217.723,18.628 217.758,17.814 217.793,17.017 217.83,16.249 217.865,15.521 217.9,14.845 
			217.937,14.236 217.972,13.697 218.007,13.242 218.043,12.875 218.079,12.603 218.114,12.429 218.15,12.359 218.186,12.392 
			218.221,12.525 218.256,12.759 218.292,13.095 218.328,13.517 218.363,14.023 218.399,14.611 218.435,15.26 218.47,15.97 
			218.506,16.724 218.542,17.513 218.577,18.321 218.613,19.139 218.648,19.952 218.684,20.745 218.72,21.509 218.755,22.231 
			218.791,22.897 218.827,23.501 218.861,24.032 218.898,24.474 218.933,24.831 218.969,25.091 219.005,25.251 219.04,25.31 
			219.076,25.263 219.111,25.116 219.147,24.868 219.183,24.524 219.218,24.091 219.254,23.571 219.29,22.978 219.325,22.317 
			219.361,21.603 219.396,20.841 219.432,20.052 219.468,19.241 		"/>
		<polyline fill="none" stroke="#000000" stroke-width="0.5" stroke-linejoin="round" stroke-miterlimit="10" points="
			219.432,20.052 219.468,19.241 219.503,18.425 219.539,17.611 219.575,16.82 219.61,16.063 219.646,15.347 219.681,14.685 
			219.716,14.093 219.753,13.575 219.788,13.141 219.823,12.796 219.859,12.55 219.895,12.402 219.93,12.357 219.967,12.414 
			220.002,12.574 220.038,12.835 220.073,13.189 220.109,13.634 220.145,14.164 220.18,14.767 220.215,15.435 220.251,16.155 
			220.287,16.919 220.322,17.714 220.357,18.525 220.394,19.343 220.429,20.153 220.465,20.94 220.5,21.696 220.536,22.405 
			220.572,23.056 220.607,23.64 220.643,24.149 220.678,24.573 220.714,24.905 220.749,25.14 220.785,25.274 220.82,25.306 
			220.857,25.235 220.892,25.063 220.927,24.79 220.962,24.423 221,23.968 221.035,23.431 221.07,22.817 221.105,22.146 
			221.142,21.415 221.177,20.649 221.212,19.851 221.248,19.037 		"/>
		<polyline fill="none" stroke="#000000" stroke-width="0.5" stroke-linejoin="round" stroke-miterlimit="10" points="
			221.212,19.851 221.248,19.037 221.285,18.219 221.32,17.412 221.355,16.629 221.392,15.878 221.427,15.177 221.462,14.533 
			221.498,13.957 221.533,13.458 221.568,13.046 221.603,12.726 221.64,12.503 221.675,12.38 221.71,12.361 221.748,12.444 
			221.783,12.63 221.818,12.914 221.853,13.292 221.89,13.761 221.925,14.31 221.96,14.927 221.998,15.61 222.033,16.343 
			222.066,17.115 222.103,17.914 222.138,18.732 222.173,19.547 222.21,20.353 222.246,21.132 222.281,21.876 222.316,22.573 
			222.353,23.208 222.388,23.774 222.423,24.263 222.458,24.665 222.496,24.974 222.531,25.183 222.566,25.294 222.601,25.3 
			222.638,25.2 222.671,25.003 222.708,24.708 222.744,24.317 222.779,23.841 222.816,23.282 222.851,22.657 222.886,21.968 
			222.921,21.228 222.958,20.45 222.994,19.647 223.029,18.832 		"/>
		
			<line fill="none" stroke="#000000" stroke-width="0.5" stroke-linejoin="round" stroke-miterlimit="10" x1="222.994" y1="19.647" x2="223.029" y2="18.832"/>
	</g>
	<text transform="matrix(1 0 0 1 221.2896 176.3965)" font-family="'ArialMT'" font-size="9">Depression</text>
	<g>
		<path fill="none" stroke="#000000" stroke-miterlimit="10" d="M267.475,227.164c0,6.629-5.373,12-12,12h-22.847
			c-6.628,0-12-5.371-12-12v-5.643c0-6.627,5.372-12,12-12h22.847c6.627,0,12,5.373,12,12V227.164z"/>
		<text transform="matrix(1 0 0 1 234.5508 226.7437)" font-family="'ArialMT'" font-size="9">HPC</text>
	</g>
	<g>
		<path fill="none" stroke="#000000" stroke-miterlimit="10" d="M267.475,323.748c0,6.629-5.373,12-12,12h-22.847
			c-6.628,0-12-5.371-12-12v-5.643c0-6.627,5.372-12,12-12h22.847c6.627,0,12,5.373,12,12V323.748z"/>
		<text transform="matrix(1 0 0 1 237.3008 323.3276)" font-family="'ArialMT'" font-size="9">MS</text>
	</g>
	<text transform="matrix(1 0 0 1 289.3711 195.5161)"><tspan x="0" y="0" font-family="'ArialMT'" font-size="7">anti-depressive</tspan><tspan x="11.477" y="8" font-family="'ArialMT'" font-size="7">effects?</tspan></text>
	<text transform="matrix(1 0 0 1 307.0801 322.7925)" font-family="'ArialMT'" font-size="7">pleasure</text>
	<g>
		
			<line fill="none" stroke="#000000" stroke-width="0.7484" stroke-miterlimit="10" x1="189.457" y1="295.333" x2="225.659" y2="322.664"/>
		<path fill="none" stroke="#000000" stroke-width="0.7484" stroke-miterlimit="10" d="M189.457,295.333
			c0,0-2.834-2.656-2.547-3.025c0.29-0.369,4.379,2.52,4.079,2.672c-0.301,0.146-3.544-3.314-3.072-3.799
			c0.477-0.486,4.534,2.303,4.069,2.682c-0.465,0.377-3.211-3.566-3.062-3.813c0.15-0.24,3.241,2.248,3.241,2.248l36.204,27.33"/>
	</g>
	<polygon fill="#F39800" points="218.959,307.06 224.646,293.269 220.13,297.698 223.25,288.937 216.608,302.594 220.959,299.698 	
		"/>
	<g>
		<g>
			<line fill="none" stroke="#000000" stroke-miterlimit="10" x1="239.086" y1="306.573" x2="239.086" y2="248.7"/>
			<g>
				<g>
					<polygon fill="#FFFFFF" points="242.805,243.095 239.065,249.374 235.326,243.095 					"/>
					<path d="M243.464,242.72l-4.399,7.387l-4.399-7.387H243.464z M239.065,248.64l3.079-5.17h-6.159L239.065,248.64z"/>
				</g>
			</g>
		</g>
	</g>
	<g>
		<g>
			<line fill="none" stroke="#000000" stroke-miterlimit="10" x1="247.236" y1="239.432" x2="247.236" y2="297.305"/>
			<g>
				<g>
					<polygon fill="#FFFFFF" points="243.518,302.91 247.257,296.631 250.996,302.91 					"/>
					<path d="M242.858,303.285l4.399-7.387l4.399,7.387H242.858z M247.257,297.365l-3.079,5.17h6.159L247.257,297.365z"/>
				</g>
			</g>
		</g>
	</g>
	<g>
		<g>
			<line fill="none" stroke="#000000" stroke-miterlimit="10" x1="262.546" y1="197.649" x2="281.428" y2="197.649"/>
			<g>
				<path d="M285.954,197.649c-2.13,0.791-4.772,2.139-6.41,3.567l1.29-3.567l-1.29-3.566
					C281.182,195.511,283.824,196.86,285.954,197.649z"/>
			</g>
		</g>
	</g>
	<g>
		<polyline fill="none" stroke="#000000" stroke-width="0.75" stroke-linejoin="round" stroke-miterlimit="10" points="
			254.091,274.304 254.341,273.492 254.595,272.685 254.845,271.911 255.096,271.171 255.35,270.481 255.601,269.856 
			255.851,269.296 256.101,268.821 256.354,268.429 256.606,268.133 256.855,267.934 257.109,267.839 257.359,267.845 
			257.611,267.954 257.859,268.166 258.115,268.474 258.365,268.875 258.615,269.363 258.869,269.929 259.117,270.564 
			259.37,271.261 259.623,272.003 259.873,272.788 260.123,273.591 260.378,274.406 260.628,275.221 260.879,276.022 
			261.129,276.793 261.383,277.53 261.632,278.208 261.885,278.829 262.139,279.377 262.388,279.843 262.638,280.223 
			262.894,280.507 263.143,280.694 263.394,280.777 263.645,280.755 263.897,280.633 264.147,280.413 264.399,280.091 
			264.647,279.678 264.902,279.181 265.151,278.606 265.403,277.96 265.657,277.258 265.907,276.51 266.159,275.725 
			266.412,274.917 		"/>
		<polyline fill="none" stroke="#000000" stroke-width="0.75" stroke-linejoin="round" stroke-miterlimit="10" points="
			266.159,275.725 266.412,274.917 266.661,274.101 266.911,273.287 267.163,272.49 267.416,271.721 267.667,270.994 
			267.917,270.318 268.171,269.708 268.421,269.169 268.673,268.714 268.925,268.347 269.177,268.076 269.425,267.902 
			269.677,267.832 269.931,267.865 270.181,267.998 270.431,268.232 270.683,268.568 270.936,268.99 271.185,269.496 
			271.438,270.083 271.688,270.733 271.94,271.443 272.19,272.197 272.444,272.986 272.694,273.793 272.946,274.612 
			273.198,275.424 273.449,276.217 273.699,276.981 273.953,277.704 274.203,278.37 274.454,278.973 274.703,279.504 
			274.958,279.947 275.208,280.303 275.459,280.563 275.713,280.724 275.962,280.782 276.214,280.736 276.466,280.588 
			276.718,280.34 276.968,279.997 277.219,279.563 277.472,279.043 277.724,278.451 277.974,277.79 278.228,277.075 
			278.478,276.314 278.729,275.524 278.982,274.713 		"/>
		<polyline fill="none" stroke="#000000" stroke-width="0.75" stroke-linejoin="round" stroke-miterlimit="10" points="
			278.729,275.524 278.982,274.713 279.233,273.898 279.483,273.083 279.739,272.292 279.987,271.536 280.239,270.82 
			280.489,270.158 280.739,269.566 280.993,269.047 281.243,268.614 281.493,268.269 281.747,268.023 281.999,267.875 
			282.247,267.83 282.503,267.886 282.751,268.046 283.003,268.308 283.255,268.662 283.509,269.107 283.759,269.636 
			284.009,270.24 284.261,270.908 284.513,271.627 284.763,272.392 285.013,273.187 285.265,273.998 285.519,274.816 
			285.771,275.625 286.022,276.413 286.271,277.168 286.522,277.877 286.776,278.528 287.024,279.113 287.276,279.622 
			287.53,280.045 287.78,280.377 288.03,280.613 288.282,280.747 288.536,280.778 288.786,280.708 289.036,280.536 289.29,280.262 
			289.54,279.896 289.792,279.44 290.042,278.903 290.296,278.29 290.546,277.618 290.796,276.887 291.05,276.122 291.302,275.323 
			291.552,274.509 		"/>
		<polyline fill="none" stroke="#000000" stroke-width="0.75" stroke-linejoin="round" stroke-miterlimit="10" points="
			291.302,275.323 291.552,274.509 291.806,273.692 292.054,272.884 292.308,272.102 292.56,271.351 292.812,270.65 
			293.063,270.005 293.312,269.429 293.565,268.931 293.813,268.519 294.065,268.199 294.319,267.976 294.569,267.853 
			294.821,267.833 295.075,267.917 295.323,268.103 295.577,268.386 295.825,268.765 296.079,269.234 296.329,269.783 
			296.581,270.4 296.835,271.083 297.083,271.816 297.333,272.587 297.587,273.386 297.839,274.205 298.089,275.02 298.341,275.826 
			298.595,276.604 298.845,277.349 299.093,278.045 299.349,278.681 299.597,279.247 299.849,279.736 300.101,280.137 
			300.353,280.446 300.604,280.656 300.854,280.766 301.104,280.772 301.358,280.672 301.606,280.475 301.858,280.181 
			302.112,279.79 302.362,279.313 302.616,278.754 302.868,278.13 303.118,277.44 303.366,276.7 303.618,275.922 303.872,275.12 
			304.122,274.304 		"/>
		
			<line fill="none" stroke="#000000" stroke-width="0.75" stroke-linejoin="round" stroke-miterlimit="10" x1="303.872" y1="275.12" x2="304.122" y2="274.304"/>
	</g>
	<g>
		<polyline fill="none" stroke="#000000" stroke-width="0.5" stroke-linejoin="round" stroke-miterlimit="10" points="
			231.826,197.648 231.862,196.835 231.898,196.029 231.933,195.254 231.969,194.515 232.004,193.825 232.04,193.2 232.076,192.64 
			232.111,192.165 232.147,191.773 232.183,191.477 232.218,191.278 232.254,191.183 232.29,191.189 232.325,191.297 
			232.36,191.509 232.396,191.818 232.432,192.218 232.467,192.707 232.503,193.273 232.538,193.908 232.574,194.605 
			232.61,195.347 232.646,196.131 232.681,196.935 232.717,197.75 232.752,198.565 232.788,199.366 232.823,200.137 
			232.859,200.874 232.895,201.552 232.93,202.172 232.966,202.721 233.001,203.187 233.037,203.567 233.073,203.851 
			233.108,204.038 233.144,204.121 233.18,204.099 233.215,203.977 233.251,203.756 233.286,203.435 233.322,203.022 
			233.358,202.525 233.393,201.95 233.429,201.304 233.464,200.602 233.5,199.854 233.536,199.069 233.572,198.261 		"/>
		<polyline fill="none" stroke="#000000" stroke-width="0.5" stroke-linejoin="round" stroke-miterlimit="10" points="
			233.536,199.069 233.572,198.261 233.607,197.445 233.642,196.63 233.678,195.833 233.714,195.065 233.75,194.337 
			233.785,193.662 233.821,193.052 233.856,192.513 233.892,192.058 233.928,191.691 233.963,191.419 233.999,191.246 
			234.034,191.175 234.07,191.208 234.105,191.341 234.141,191.576 234.177,191.912 234.212,192.333 234.248,192.839 
			234.284,193.427 234.319,194.077 234.354,194.787 234.39,195.541 234.426,196.33 234.461,197.137 234.497,197.956 
			234.533,198.768 234.568,199.561 234.604,200.325 234.64,201.047 234.675,201.713 234.711,202.317 234.746,202.848 
			234.782,203.291 234.817,203.647 234.853,203.907 234.889,204.068 234.924,204.125 234.96,204.08 234.996,203.932 
			235.032,203.684 235.067,203.34 235.102,202.907 235.138,202.387 235.174,201.794 235.209,201.133 235.245,200.418 
			235.281,199.658 235.316,198.868 235.352,198.057 		"/>
		<polyline fill="none" stroke="#000000" stroke-width="0.5" stroke-linejoin="round" stroke-miterlimit="10" points="
			235.316,198.868 235.352,198.057 235.388,197.242 235.423,196.427 235.459,195.636 235.495,194.879 235.53,194.164 
			235.565,193.501 235.601,192.91 235.637,192.391 235.672,191.958 235.708,191.613 235.744,191.367 235.779,191.218 
			235.814,191.173 235.851,191.23 235.886,191.39 235.922,191.652 235.957,192.005 235.994,192.451 236.029,192.98 236.064,193.583 
			236.1,194.251 236.135,194.971 236.171,195.736 236.206,196.531 236.242,197.341 236.278,198.16 236.313,198.969 236.349,199.756 
			236.384,200.512 236.42,201.221 236.456,201.872 236.491,202.457 236.527,202.965 236.563,203.389 236.598,203.721 
			236.633,203.957 236.669,204.09 236.705,204.122 236.741,204.051 236.776,203.879 236.812,203.606 236.847,203.24 
			236.883,202.784 236.918,202.247 236.955,201.633 236.99,200.961 237.026,200.231 237.062,199.465 237.097,198.667 
			237.132,197.853 		"/>
		<polyline fill="none" stroke="#000000" stroke-width="0.5" stroke-linejoin="round" stroke-miterlimit="10" points="
			237.097,198.667 237.132,197.853 237.168,197.036 237.204,196.228 237.239,195.446 237.276,194.695 237.311,193.994 
			237.346,193.349 237.382,192.773 237.417,192.275 237.453,191.863 237.488,191.542 237.525,191.32 237.56,191.197 
			237.595,191.177 237.631,191.26 237.667,191.447 237.703,191.73 237.738,192.109 237.774,192.578 237.809,193.126 
			237.844,193.744 237.881,194.426 237.917,195.16 237.951,195.931 237.988,196.73 238.023,197.548 238.058,198.364 
			238.094,199.169 238.13,199.948 238.166,200.693 238.201,201.389 238.237,202.025 238.272,202.59 238.307,203.08 238.343,203.481 
			238.379,203.79 238.415,204 238.45,204.11 238.486,204.116 238.522,204.016 238.556,203.819 238.592,203.525 238.628,203.133 
			238.664,202.657 238.7,202.098 238.736,201.474 238.771,200.784 238.805,200.043 238.842,199.266 238.877,198.463 
			238.913,197.648 		"/>
		
			<line fill="none" stroke="#000000" stroke-width="0.5" stroke-linejoin="round" stroke-miterlimit="10" x1="238.877" y1="198.463" x2="238.913" y2="197.648"/>
	</g>
	<g>
		<polyline fill="none" stroke="#000000" stroke-width="0.5" stroke-linejoin="round" stroke-miterlimit="10" points="
			248.693,197.648 248.729,196.835 248.765,196.029 248.8,195.254 248.835,194.515 248.871,193.825 248.907,193.2 248.942,192.64 
			248.978,192.165 249.014,191.773 249.049,191.477 249.085,191.278 249.121,191.183 249.156,191.189 249.192,191.297 
			249.227,191.509 249.263,191.818 249.298,192.218 249.334,192.707 249.37,193.273 249.405,193.908 249.441,194.605 
			249.476,195.347 249.512,196.131 249.547,196.935 249.583,197.75 249.619,198.565 249.654,199.366 249.69,200.137 
			249.726,200.874 249.761,201.552 249.796,202.172 249.833,202.721 249.869,203.187 249.904,203.567 249.94,203.851 
			249.975,204.038 250.011,204.121 250.046,204.099 250.082,203.977 250.118,203.756 250.153,203.435 250.189,203.022 
			250.224,202.525 250.259,201.95 250.295,201.304 250.332,200.602 250.367,199.854 250.402,199.069 250.439,198.261 		"/>
		<polyline fill="none" stroke="#000000" stroke-width="0.5" stroke-linejoin="round" stroke-miterlimit="10" points="
			250.402,199.069 250.439,198.261 250.474,197.445 250.509,196.63 250.544,195.833 250.58,195.065 250.616,194.337 
			250.651,193.662 250.687,193.052 250.722,192.513 250.758,192.058 250.794,191.691 250.829,191.419 250.864,191.246 
			250.9,191.175 250.937,191.208 250.972,191.341 251.007,191.576 251.043,191.912 251.079,192.333 251.114,192.839 
			251.149,193.427 251.185,194.077 251.221,194.787 251.257,195.541 251.292,196.33 251.327,197.137 251.363,197.956 
			251.399,198.768 251.435,199.561 251.47,200.325 251.506,201.047 251.542,201.713 251.577,202.317 251.612,202.848 
			251.648,203.291 251.684,203.647 251.72,203.907 251.755,204.068 251.79,204.125 251.826,204.08 251.862,203.932 251.897,203.684 
			251.933,203.34 251.968,202.907 252.005,202.387 252.04,201.794 252.075,201.133 252.111,200.418 252.147,199.658 
			252.183,198.868 252.218,198.057 		"/>
		<polyline fill="none" stroke="#000000" stroke-width="0.5" stroke-linejoin="round" stroke-miterlimit="10" points="
			252.183,198.868 252.218,198.057 252.254,197.242 252.29,196.427 252.325,195.636 252.36,194.879 252.396,194.164 
			252.432,193.501 252.467,192.91 252.503,192.391 252.538,191.958 252.573,191.613 252.61,191.367 252.646,191.218 
			252.681,191.173 252.718,191.23 252.753,191.39 252.788,191.652 252.823,192.005 252.86,192.451 252.896,192.98 252.931,193.583 
			252.966,194.251 253.001,194.971 253.037,195.736 253.072,196.531 253.108,197.341 253.144,198.16 253.18,198.969 
			253.216,199.756 253.251,200.512 253.286,201.221 253.322,201.872 253.358,202.457 253.394,202.965 253.429,203.389 
			253.464,203.721 253.499,203.957 253.536,204.09 253.571,204.122 253.606,204.051 253.642,203.879 253.679,203.606 
			253.714,203.24 253.749,202.784 253.784,202.247 253.821,201.633 253.856,200.961 253.892,200.231 253.929,199.465 
			253.964,198.667 253.999,197.853 		"/>
		<polyline fill="none" stroke="#000000" stroke-width="0.5" stroke-linejoin="round" stroke-miterlimit="10" points="
			253.964,198.667 253.999,197.853 254.034,197.036 254.069,196.228 254.104,195.446 254.142,194.695 254.177,193.994 
			254.212,193.349 254.249,192.773 254.284,192.275 254.319,191.863 254.354,191.542 254.392,191.32 254.427,191.197 
			254.462,191.177 254.497,191.26 254.532,191.447 254.569,191.73 254.604,192.109 254.64,192.578 254.675,193.126 254.71,193.744 
			254.747,194.426 254.782,195.16 254.817,195.931 254.854,196.73 254.89,197.548 254.925,198.364 254.96,199.169 254.997,199.948 
			255.032,200.693 255.067,201.389 255.103,202.025 255.138,202.59 255.173,203.08 255.21,203.481 255.245,203.79 255.28,204 
			255.315,204.11 255.353,204.116 255.388,204.016 255.423,203.819 255.458,203.525 255.495,203.133 255.53,202.657 
			255.565,202.098 255.603,201.474 255.638,200.784 255.671,200.043 255.708,199.266 255.743,198.463 255.778,197.648 		"/>
		
			<line fill="none" stroke="#000000" stroke-width="0.5" stroke-linejoin="round" stroke-miterlimit="10" x1="255.743" y1="198.463" x2="255.778" y2="197.648"/>
	</g>
	<text transform="matrix(1 0 0 1 225.7393 187.2817)" font-family="'ArialMT'" font-size="7">γ restration</text>
	<g>
		<g>
			<line fill="none" stroke="#000000" stroke-miterlimit="10" x1="275.715" y1="320.926" x2="294.597" y2="320.926"/>
			<g>
				<path d="M299.123,320.926c-2.13,0.79-4.772,2.139-6.41,3.567l1.29-3.567l-1.29-3.566
					C294.351,318.789,296.993,320.136,299.123,320.926z"/>
			</g>
		</g>
	</g>
	<text transform="matrix(1 0 0 1 261.5986 261.936)" font-family="'ArialMT'" font-size="7">θ restration</text>
	<text transform="matrix(1 0 0 1 325.0713 13.1772)" font-family="'ArialMT'" font-size="9">Anxiety and Fear</text>
	<g>
		<path fill="none" stroke="#000000" stroke-miterlimit="10" d="M455.332,45.025c0,6.628-5.373,12-12,12h-22.848
			c-6.627,0-12-5.372-12-12v-5.644c0-6.627,5.373-12,12-12h22.848c6.627,0,12,5.373,12,12V45.025z"/>
		<text transform="matrix(1 0 0 1 422.4063 44.6045)" font-family="'ArialMT'" font-size="9">HPC</text>
	</g>
	<g>
		<path fill="none" stroke="#000000" stroke-miterlimit="10" d="M387.109,137.776c0,6.628-5.372,12-12,12h-22.847
			c-6.627,0-12-5.372-12-12v-5.643c0-6.627,5.373-12,12-12h22.847c6.628,0,12,5.373,12,12V137.776z"/>
		<text transform="matrix(1 0 0 1 356.9355 137.3555)" font-family="'ArialMT'" font-size="9">MS</text>
	</g>
	<g>
		<path fill="none" stroke="#000000" stroke-miterlimit="10" d="M313.146,45.025c0,6.628-5.373,12-12,12h-22.846
			c-6.629,0-12-5.372-12-12v-5.644c0-6.627,5.371-12,12-12h22.846c6.627,0,12,5.373,12,12V45.025z"/>
		<text transform="matrix(1 0 0 1 280.2285 44.604)" font-family="'ArialMT'" font-size="9">ACC</text>
	</g>
	<text transform="matrix(1 0 0 1 445.1396 115.3276)" font-family="'ArialMT'" font-size="9">VNS</text>
	<text transform="matrix(1 0 0 1 297.082 124.6621)" font-family="'ArialMT'" font-size="7">proper θ</text>
	<text transform="matrix(1 0 0 1 267.5449 23.437)" font-family="'ArialMT'" font-size="7">proper anxiety</text>
	<text transform="matrix(1 0 0 1 401.1748 23.437)" font-family="'ArialMT'" font-size="7">proper fear memory</text>
	<g>
		
			<line fill="none" stroke="#000000" stroke-width="0.7484" stroke-miterlimit="10" x1="473.852" y1="126.458" x2="437.648" y2="153.791"/>
		<path fill="none" stroke="#000000" stroke-width="0.7484" stroke-miterlimit="10" d="M473.852,126.458
			c0,0,2.834-2.654,2.547-3.023c-0.291-0.371-4.38,2.52-4.08,2.67c0.302,0.148,3.545-3.314,3.072-3.799
			c-0.477-0.484-4.533,2.305-4.068,2.684c0.465,0.377,3.211-3.568,3.061-3.813c-0.149-0.241-3.24,2.248-3.24,2.248l-36.204,27.33"/>
	</g>
	<text transform="matrix(1 0 0 1 283.9199 67.0146)" font-family="'ArialMT'" font-size="7">ACh</text>
	<text transform="matrix(1 0 0 1 426.1045 67.0146)" font-family="'ArialMT'" font-size="7">ACh</text>
	<g>
		<g>
			<line fill="none" stroke="#000000" stroke-miterlimit="10" x1="347.731" y1="120.322" x2="308.477" y2="67.306"/>
			<g>
				<g>
					<polygon fill="#FFFFFF" points="308.13,60.589 308.86,67.86 302.119,65.04 					"/>
					<path d="M308.437,59.895l0.86,8.554l-7.932-3.318L308.437,59.895z M308.425,67.271l-0.603-5.987l-4.949,3.665L308.425,67.271z"
						/>
				</g>
			</g>
		</g>
	</g>
	<g>
		<g>
			<line fill="none" stroke="#000000" stroke-miterlimit="10" x1="376.92" y1="120.322" x2="416.174" y2="67.306"/>
			<g>
				<g>
					<polygon fill="#FFFFFF" points="422.498,65.015 415.757,67.835 416.487,60.564 					"/>
					<path d="M423.251,65.106l-7.931,3.319l0.859-8.555L423.251,65.106z M416.193,67.246l5.551-2.323l-4.949-3.665L416.193,67.246z"
						/>
				</g>
			</g>
		</g>
	</g>
	<g>
		<g>
			
				<line fill="none" stroke="#000000" stroke-width="0.75" stroke-miterlimit="10" x1="428.048" y1="148.768" x2="394.623" y2="142.304"/>
			<g>
				<path d="M390.179,141.445c2.241-0.372,5.092-1.194,6.971-2.285l-1.943,3.257l0.59,3.746
					C394.458,144.45,392.12,142.625,390.179,141.445z"/>
			</g>
		</g>
	</g>
	<g>
		<polyline fill="none" stroke="#000000" stroke-width="0.75" stroke-linejoin="round" stroke-miterlimit="10" points="
			285.104,138.953 285.354,138.14 285.607,137.333 285.857,136.56 286.107,135.82 286.361,135.13 286.613,134.505 286.863,133.946 
			287.113,133.47 287.367,133.078 287.619,132.782 287.867,132.583 288.123,132.488 288.373,132.494 288.623,132.603 
			288.873,132.814 289.129,133.123 289.377,133.523 289.629,134.011 289.881,134.579 290.129,135.213 290.383,135.911 
			290.635,136.653 290.885,137.437 291.135,138.24 291.391,139.055 291.641,139.87 291.891,140.671 292.141,141.442 
			292.395,142.179 292.645,142.857 292.896,143.478 293.15,144.026 293.4,144.492 293.65,144.872 293.906,145.156 294.154,145.343 
			294.406,145.426 294.656,145.404 294.91,145.282 295.16,145.062 295.412,144.74 295.66,144.327 295.914,143.83 296.164,143.255 
			296.416,142.609 296.67,141.907 296.92,141.159 297.172,140.374 297.424,139.566 		"/>
		<polyline fill="none" stroke="#000000" stroke-width="0.75" stroke-linejoin="round" stroke-miterlimit="10" points="
			297.172,140.374 297.424,139.566 297.674,138.75 297.924,137.936 298.176,137.138 298.428,136.37 298.68,135.643 298.93,134.967 
			299.184,134.357 299.434,133.819 299.686,133.364 299.938,132.996 300.189,132.725 300.438,132.551 300.689,132.48 
			300.943,132.513 301.193,132.647 301.443,132.881 301.695,133.216 301.947,133.638 302.197,134.145 302.451,134.732 
			302.701,135.382 302.953,136.092 303.203,136.846 303.457,137.635 303.707,138.442 303.959,139.261 304.211,140.073 
			304.461,140.866 304.711,141.63 304.965,142.353 305.215,143.019 305.467,143.622 305.715,144.153 305.971,144.596 
			306.221,144.952 306.471,145.212 306.725,145.373 306.975,145.431 307.227,145.385 307.479,145.237 307.73,144.989 
			307.98,144.646 308.23,144.212 308.484,143.692 308.736,143.1 308.986,142.438 309.24,141.724 309.49,140.963 309.742,140.173 
			309.994,139.362 		"/>
		<polyline fill="none" stroke="#000000" stroke-width="0.75" stroke-linejoin="round" stroke-miterlimit="10" points="
			309.742,140.173 309.994,139.362 310.246,138.547 310.496,137.732 310.752,136.942 311,136.185 311.252,135.468 311.502,134.807 
			311.752,134.214 312.006,133.696 312.256,133.263 312.506,132.918 312.76,132.672 313.012,132.523 313.26,132.479 
			313.516,132.536 313.764,132.695 314.016,132.957 314.268,133.311 314.521,133.756 314.771,134.285 315.021,134.888 
			315.273,135.556 315.525,136.276 315.775,137.041 316.025,137.835 316.277,138.647 316.531,139.465 316.783,140.274 
			317.035,141.062 317.283,141.817 317.535,142.526 317.789,143.177 318.037,143.762 318.289,144.271 318.543,144.694 
			318.793,145.026 319.043,145.262 319.295,145.396 319.549,145.427 319.799,145.356 320.049,145.185 320.303,144.911 
			320.553,144.545 320.805,144.089 321.055,143.552 321.309,142.938 321.559,142.267 321.809,141.536 322.063,140.771 
			322.314,139.972 322.564,139.158 		"/>
		<polyline fill="none" stroke="#000000" stroke-width="0.75" stroke-linejoin="round" stroke-miterlimit="10" points="
			322.314,139.972 322.564,139.158 322.818,138.341 323.066,137.534 323.32,136.751 323.572,136 323.824,135.298 324.076,134.654 
			324.324,134.078 324.578,133.581 324.826,133.168 325.078,132.848 325.332,132.625 325.582,132.502 325.834,132.482 
			326.088,132.565 326.336,132.751 326.59,133.036 326.838,133.414 327.092,133.883 327.342,134.431 327.594,135.049 
			327.848,135.731 328.096,136.465 328.346,137.237 328.6,138.036 328.852,138.853 329.102,139.669 329.354,140.475 
			329.607,141.253 329.857,141.998 330.105,142.694 330.361,143.33 330.609,143.896 330.861,144.385 331.113,144.786 
			331.365,145.095 331.617,145.305 331.867,145.415 332.117,145.421 332.371,145.321 332.619,145.124 332.871,144.83 
			333.125,144.438 333.375,143.962 333.629,143.403 333.881,142.779 334.131,142.089 334.379,141.349 334.631,140.571 
			334.885,139.769 335.135,138.953 		"/>
		
			<line fill="none" stroke="#000000" stroke-width="0.75" stroke-linejoin="round" stroke-miterlimit="10" x1="334.885" y1="139.769" x2="335.135" y2="138.953"/>
	</g>
	<polygon fill="#F39800" points="442.011,137.389 447.698,123.598 443.182,128.027 446.302,119.266 439.659,132.923 
		444.011,130.027 	"/>
	<path fill="none" stroke="#000000" stroke-width="0.75" stroke-linejoin="round" stroke-miterlimit="10" d="M427.393,135.229
		c0,0,5.901,5.016,6.75,9.404s-2.949,15.674-2.949,15.674"/>
	<path fill="none" stroke="#000000" stroke-width="0.75" stroke-linejoin="round" stroke-miterlimit="10" d="M431.705,135.229
		c0,0,4.901,5.016,5.75,9.404s-2.949,15.674-2.949,15.674"/>
</g>
<g id="レイヤー_2" display="none">
	<g display="inline">
		<g>
			<defs>
				<rect id="SVGID_1_" x="-14" y="-89.212" width="170" height="198"/>
			</defs>
			<clipPath id="SVGID_2_">
				<use xlink:href="#SVGID_1_"  overflow="visible"/>
			</clipPath>
			<g clip-path="url(#SVGID_2_)">
				<defs>
					<rect id="SVGID_3_" x="-14" y="-89.212" width="170.079" height="198.425"/>
				</defs>
				<clipPath id="SVGID_4_">
					<use xlink:href="#SVGID_3_"  overflow="visible"/>
				</clipPath>
				<rect x="-14" y="-89.212" clip-path="url(#SVGID_4_)" fill="#FFFFFF" width="170.079" height="198.425"/>
			</g>
			<rect x="-14" y="-89.212" clip-path="url(#SVGID_2_)" fill="#FFFFFF" width="170.079" height="198.425"/>
			<g clip-path="url(#SVGID_2_)">
				<text transform="matrix(1.0025 0 0 1 22.0591 -72.3823)" font-family="'Arial-BoldMT'" font-size="7.693">HPC electrographic seizures</text>
			</g>
			
				<polyline clip-path="url(#SVGID_2_)" fill="none" stroke="#000000" stroke-width="0.5002" stroke-linejoin="round" stroke-miterlimit="10" points="
				8.236,-35.427 8.501,-35.239 8.767,-35.375 9.031,-35.407 9.296,-35.448 9.561,-35.605 9.826,-35.647 10.091,-35.498 
				10.356,-35.666 10.621,-35.729 10.886,-35.697 11.151,-35.718 11.416,-35.781 11.681,-35.82 11.946,-35.873 12.211,-35.841 
				12.476,-35.915 12.741,-35.977 13.006,-37.579 13.271,-51.587 13.536,-63.639 13.801,-68.037 14.065,-69.43 14.331,-66.624 
				14.596,-62.917 14.86,-61.919 15.125,-61.417 15.391,-59.417 15.655,-56.475 15.92,-53.218 16.186,-50.011 16.45,-46.461 
				16.715,-44.074 16.98,-42.461 17.245,-41.017 17.51,-40.323 17.775,-40.071 18.04,-40.407 18.305,-41.527 18.57,-40.595 
				18.835,-40.292 19.1,-39.671 19.365,-38.666 19.63,-38.152 19.895,-38.257 20.16,-38.538 20.425,-39.071 20.69,-39.71 
				20.955,-40.171 21.22,-40.454 21.484,-41.1 21.75,-41.634 22.015,-41.603 22.279,-41.592 22.544,-42.713 22.81,-51.233 
				23.074,-60.061 23.339,-61.433 23.604,-58.176 23.869,-53.273 24.134,-50.467 24.399,-48.655 24.664,-46.477 24.929,-44.16 
				25.194,-41.637 25.459,-39.354 25.724,-36.569 25.989,-35.166 26.254,-34.126 26.519,-32.88 26.784,-33.488 27.049,-33.718 
				27.314,-33.338 27.579,-34.208 27.844,-35.632 28.109,-35.485 28.374,-35.535 28.639,-35.891 28.904,-35.817 29.168,-35.828 
				29.434,-35.961 29.698,-35.94 29.963,-36.223 30.229,-36.828 30.493,-36.671 30.758,-36.765 31.023,-36.409 31.288,-36.292 
				31.553,-40.637 31.818,-51.579 32.083,-56.344 32.348,-57.074 32.613,-52.76 32.878,-48.687 33.143,-46.81 33.408,-45.626 
				33.673,-44.391 33.938,-43.271 34.203,-40.87 34.468,-37.886 34.733,-35.415 34.998,-33.383 35.263,-33.15 35.528,-33.726 
				35.792,-35.873 36.058,-36.771 36.323,-35.975 36.587,-36.017 36.853,-35.574 37.118,-34.464 37.382,-33.763 37.647,-33.532 
				37.912,-33.404 38.177,-33.739 38.442,-34.21 38.707,-34.396 38.972,-34.25 39.237,-33.956 39.502,-33.399 39.767,-33.032 
				40.032,-33.765 40.297,-40.558 40.562,-52.789 40.827,-57.323 41.092,-57.802 41.357,-53.1 41.622,-49.341 41.887,-47.582 
				42.152,-46.605 42.417,-45.066 42.682,-43.129 42.947,-40.352 43.211,-37.168 43.477,-34.676 43.742,-32.736 44.006,-33.574 
				44.271,-33.668 44.537,-32.608 44.801,-33.006 45.066,-33.373 45.332,-33.035 45.596,-32.94 45.861,-32.365 46.126,-32.184 
				46.391,-32.603 46.656,-32.747 46.921,-33.187 47.186,-33.417 47.451,-33.645 47.716,-33.645 47.981,-33.729 48.246,-33.684 
				48.511,-33.663 48.776,-33.925 49.041,-33.859 49.306,-34.017 49.571,-34.215 49.835,-34.296 50.101,-34.255 50.366,-34.336 
				50.63,-34.126 50.896,-34.482 51.161,-41.506 51.425,-55.171 51.69,-59.778 51.956,-60.54 52.22,-56.236 52.485,-51.888 
				52.75,-50.139 53.015,-49.092 53.28,-47.739 53.545,-45.697 53.81,-42.011 54.075,-38.312 54.34,-35.611 54.605,-33.409 
				54.87,-33.294 55.135,-36.111 55.4,-36.6 55.665,-34.338 55.93,-33.645 56.195,-34.179 56.46,-34.158 56.725,-32.501 
				56.99,-31.663 57.255,-31.988 57.52,-32.53 57.785,-33.074 58.049,-33.49 58.314,-33.825 58.58,-33.616 58.844,-33.571 
				59.109,-33.697 59.375,-33.904 59.639,-34.082 59.904,-34.383 60.169,-34.488 60.434,-34.54 60.699,-34.673 60.964,-34.694 
				61.229,-34.786 61.494,-34.933 61.759,-34.817 62.024,-34.825 62.289,-34.919 62.554,-35.021 62.819,-35.063 63.084,-35.092 
				63.349,-35.176 63.614,-35.239 63.879,-35.383 64.144,-35.383 64.409,-35.255 64.674,-35.181 64.938,-35.221 65.204,-35.273 
				65.469,-35.263 65.733,-35.26 65.999,-35.344 66.263,-35.299 66.528,-35.173 66.793,-35.213 67.058,-35.265 67.323,-35.087 
				67.588,-35.126 67.853,-35.105 68.118,-34.873 68.383,-34.799 68.648,-35.111 68.913,-34.933 69.178,-34.982 69.443,-34.93 
				69.708,-34.825 69.973,-34.813 70.238,-34.75 70.503,-34.715 70.768,-34.59 71.033,-34.734 71.298,-34.64 71.563,-34.689 
				71.828,-34.721 72.093,-34.666 72.357,-34.676 72.623,-34.517 72.888,-34.559 73.152,-34.642 73.417,-34.608 73.683,-34.577 
				73.947,-34.637 74.212,-34.563 74.477,-34.446 74.742,-34.446 75.007,-34.569 75.272,-34.506 75.537,-34.451 75.802,-34.65 
				76.067,-34.637 76.332,-34.574 76.597,-34.676 76.862,-34.655 77.127,-34.613 77.392,-34.569 77.657,-34.538 77.922,-34.503 
				78.187,-34.692 78.452,-34.7 78.717,-34.605 78.981,-34.53 79.247,-34.592 79.512,-34.653 79.776,-34.569 80.042,-34.64 
				80.307,-34.681 80.571,-34.459 80.836,-34.574 81.102,-34.708 81.366,-34.53 81.631,-34.527 81.896,-34.757 82.161,-34.65 
				82.426,-34.702 82.691,-34.846 82.956,-34.71 83.221,-34.687 83.486,-34.708 83.751,-34.747 84.016,-34.789 84.281,-34.912 
				84.546,-35.006 84.811,-34.993 85.076,-34.899 85.341,-35.011 85.606,-34.917 85.871,-34.925 86.136,-34.936 86.4,-35.048 
				86.666,-34.954 86.931,-34.899 87.195,-35.119 87.46,-35.168 87.726,-35.294 87.99,-35.344 88.255,-35.427 88.521,-35.624 
				88.785,-36.472 89.05,-37.977 89.315,-42.323 89.58,-49.775 89.845,-55.964 90.11,-62.422 90.375,-64.359 90.64,-63.948 
				90.905,-62.859 91.17,-60.951 91.435,-59.317 91.7,-57.262 91.965,-55.105 92.23,-52.977 92.495,-50.524 92.76,-47.98 
				93.025,-46.773 93.29,-45.443 93.555,-45.252 93.82,-45.011 94.084,-44.548 94.35,-44.443 94.614,-43.394 94.879,-41.886 
				95.145,-40.742 95.409,-39.946 95.674,-39.451 95.939,-39.21 96.204,-39.407 96.469,-41.668 96.734,-49.446 96.999,-57.079 
				97.264,-59.359 97.529,-57.265 97.794,-55.482 98.059,-53.448 98.324,-52.705 98.589,-51.362 98.854,-49.603 99.119,-47.642 
				99.384,-45.433 99.649,-42.718 99.914,-40.676 100.179,-39.092 100.444,-37.365 100.708,-36.482 100.974,-37.1 101.239,-38.365 
				101.503,-39.757 101.769,-40.906 102.034,-41.689 102.298,-40.778 102.563,-39.729 102.828,-38.796 103.093,-38.721 
				103.358,-39.14 103.623,-43.912 103.888,-53.388 104.153,-57.532 104.418,-57.479 104.683,-53.75 104.948,-51.048 
				105.213,-49.056 105.478,-47.367 105.743,-45.388 106.008,-43.333 106.273,-41.082 106.538,-39.194 106.803,-37.739 
				107.068,-36.281 107.333,-35.82 107.598,-36.55 107.863,-36.519 108.127,-36.621 108.393,-35.94 108.658,-34.933 
				108.922,-34.752 109.188,-35.255 109.453,-35.891 109.717,-36.331 109.982,-37.082 110.248,-38.485 110.512,-38.053 
				110.777,-38.084 111.042,-44.197 111.307,-53.527 111.572,-56.833 111.837,-55.951 112.102,-51.071 112.367,-47.865 
				112.632,-45.885 112.897,-44.574 113.162,-43.192 113.427,-42.027 113.692,-40.32 113.957,-37.961 114.222,-36.263 
				114.487,-34.472 114.751,-35.621 115.017,-37.475 115.282,-37.011 115.546,-35.702 115.812,-34.726 116.077,-33.93 
				116.341,-33.111 116.606,-33.436 116.872,-33.841 117.136,-34.017 117.401,-34.111 117.667,-34.265 117.931,-34.192 
				118.196,-34.221 118.461,-34.158 118.726,-34.208 118.991,-34.417 119.256,-34.54 119.521,-34.456 119.786,-34.412 
				120.051,-34.242 120.316,-34.294 120.581,-34.417 120.846,-34.563 121.111,-36.844 121.376,-47.849 121.641,-57.783 
				121.906,-60.286 122.171,-58.252 122.436,-52.993 122.701,-50.103 122.965,-49.273 123.23,-48.498 123.496,-47.281 
				123.76,-45.176 124.025,-41.781 124.291,-37.383 124.555,-36.25 124.82,-37.81 125.085,-39.681 125.35,-37.134 125.615,-34.799 
				125.88,-36.189 126.145,-36.912 126.41,-35.548 126.675,-35.077 126.94,-33.629 127.205,-32.865 127.47,-32.747 127.735,-32.796 
				128,-33.121 128.265,-33.37 128.53,-33.255 128.795,-33.535 129.06,-34.069 129.325,-34.286 129.59,-34.317 129.854,-34.315 
				130.12,-34.074 130.385,-34.469 130.649,-34.383 130.915,-34.687 131.179,-34.663 131.444,-34.705 131.709,-34.713 
				131.974,-35.006 132.239,-35.161 132.504,-35.202 132.769,-35.357 133.034,-35.294 133.299,-35.218 133.564,-34.755 
				133.829,-34.964 134.094,-42.04 134.359,-56.406 134.624,-63.084 134.889,-63.398 135.154,-58.789 135.419,-54.663 
				135.684,-52.294 135.949,-51.215 136.214,-49.778 136.479,-47.996 136.744,-44.718 137.009,-40.317 137.273,-41.218 
				137.539,-44.891 137.804,-40.388 138.068,-38.386 138.333,-38.25 138.599,-34.959 138.863,-34.666 139.128,-35.438 
				139.393,-34.786 139.658,-33.792 139.923,-32.542 140.188,-32.281 140.453,-32.394 			"/>
			<g clip-path="url(#SVGID_2_)">
				<text transform="matrix(1.0025 0 0 1 30.4727 -13.0347)" fill="#0000FF" font-family="'Arial-BoldMT'" font-size="7.693">Closed-loop stimulation</text>
			</g>
			
				<polyline clip-path="url(#SVGID_2_)" fill="none" stroke="#0000FF" stroke-width="0.5002" stroke-linejoin="round" stroke-miterlimit="10" points="
				8.236,27.685 8.501,27.685 8.767,27.685 9.031,27.685 9.296,27.685 9.561,27.685 9.826,27.685 10.091,27.685 10.356,27.685 
				10.621,27.685 10.886,27.685 11.151,27.685 11.416,27.685 11.681,27.685 11.946,27.685 12.211,27.685 12.476,27.685 
				12.741,27.685 13.006,27.685 13.271,27.685 13.536,27.685 13.801,27.685 14.065,27.685 14.331,-10.082 14.596,-10.082 
				14.86,-10.082 15.125,-10.082 15.391,-10.082 15.655,-10.082 15.92,-10.082 16.186,-10.082 16.45,-10.082 16.715,-10.082 
				16.98,27.685 17.245,27.685 17.51,27.685 17.775,27.685 18.04,27.685 18.305,27.685 18.57,27.685 18.835,27.685 19.1,27.685 
				19.365,27.685 19.63,27.685 19.895,27.685 20.16,27.685 20.425,27.685 20.69,27.685 20.955,27.685 21.22,27.685 21.484,27.685 
				21.75,27.685 22.015,27.685 22.279,27.685 22.544,27.685 22.81,27.685 23.074,27.685 23.339,27.685 23.604,27.685 
				23.869,-10.082 24.134,-10.082 24.399,-10.082 24.664,-10.082 24.929,-10.082 25.194,-10.082 25.459,-10.082 25.724,-10.082 
				25.989,-10.082 26.254,-10.082 26.519,27.685 26.784,27.685 27.049,27.685 27.314,27.685 27.579,27.685 27.844,27.685 
				28.109,27.685 28.374,27.685 28.639,27.685 28.904,27.685 29.168,27.685 29.434,27.685 29.698,27.685 29.963,27.685 
				30.229,27.685 30.493,27.685 30.758,27.685 31.023,27.685 31.288,27.685 31.553,27.685 31.818,27.685 32.083,27.685 
				32.348,27.685 32.613,-10.082 32.878,-10.082 33.143,-10.082 33.408,-10.082 33.673,-10.082 33.938,-10.082 34.203,-10.082 
				34.468,-10.082 34.733,-10.082 34.998,-10.082 35.263,27.685 35.528,27.685 35.792,27.685 36.058,27.685 36.323,27.685 
				36.587,27.685 36.853,27.685 37.118,27.685 37.382,27.685 37.647,27.685 37.912,27.685 38.177,27.685 38.442,27.685 
				38.707,27.685 38.972,27.685 39.237,27.685 39.502,27.685 39.767,27.685 40.032,27.685 40.297,27.685 40.562,27.685 
				40.827,27.685 41.092,27.685 41.357,-10.082 41.622,-10.082 41.887,-10.082 42.152,-10.082 42.417,-10.082 42.682,-10.082 
				42.947,-10.082 43.211,-10.082 43.477,-10.082 43.742,-10.082 44.006,27.685 44.271,27.685 44.537,27.685 44.801,27.685 
				45.066,27.685 45.332,27.685 45.596,27.685 45.861,27.685 46.126,27.685 46.391,27.685 46.656,27.685 46.921,27.685 
				47.186,27.685 47.451,27.685 47.716,27.685 47.981,27.685 48.246,27.685 48.511,27.685 48.776,27.685 49.041,27.685 
				49.306,27.685 49.571,27.685 49.835,27.685 50.101,27.685 50.366,27.685 50.63,27.685 50.896,27.685 51.161,27.685 
				51.425,27.685 51.69,27.685 51.956,27.685 52.22,-10.082 52.485,-10.082 52.75,-10.082 53.015,-10.082 53.28,-10.082 
				53.545,-10.082 53.81,-10.082 54.075,-10.082 54.34,-10.082 54.605,-10.082 54.87,27.685 55.135,27.685 55.4,27.685 
				55.665,27.685 55.93,27.685 56.195,27.685 56.46,27.685 56.725,27.685 56.99,27.685 57.255,27.685 57.52,27.685 57.785,27.685 
				58.049,27.685 58.314,27.685 58.58,27.685 58.844,27.685 59.109,27.685 59.375,27.685 59.639,27.685 59.904,27.685 
				60.169,27.685 60.434,27.685 60.699,27.685 60.964,27.685 61.229,27.685 61.494,27.685 61.759,27.685 62.024,27.685 
				62.289,27.685 62.554,27.685 62.819,27.685 63.084,27.685 63.349,27.685 63.614,27.685 63.879,27.685 64.144,27.685 
				64.409,27.685 64.674,27.685 64.938,27.685 65.204,27.685 65.469,27.685 65.733,27.685 65.999,27.685 66.263,27.685 
				66.528,27.685 66.793,27.685 67.058,27.685 67.323,27.685 67.588,27.685 67.853,27.685 68.118,27.685 68.383,27.685 
				68.648,27.685 68.913,27.685 69.178,27.685 69.443,27.685 69.708,27.685 69.973,27.685 70.238,27.685 70.503,27.685 
				70.768,27.685 71.033,27.685 71.298,27.685 71.563,27.685 71.828,27.685 72.093,27.685 72.357,27.685 72.623,27.685 
				72.888,27.685 73.152,27.685 73.417,27.685 73.683,27.685 73.947,27.685 74.212,27.685 74.477,27.685 74.742,27.685 
				75.007,27.685 75.272,27.685 75.537,27.685 75.802,27.685 76.067,27.685 76.332,27.685 76.597,27.685 76.862,27.685 
				77.127,27.685 77.392,27.685 77.657,27.685 77.922,27.685 78.187,27.685 78.452,27.685 78.717,27.685 78.981,27.685 
				79.247,27.685 79.512,27.685 79.776,27.685 80.042,27.685 80.307,27.685 80.571,27.685 80.836,27.685 81.102,27.685 
				81.366,27.685 81.631,27.685 81.896,27.685 82.161,27.685 82.426,27.685 82.691,27.685 82.956,27.685 83.221,27.685 
				83.486,27.685 83.751,27.685 84.016,27.685 84.281,27.685 84.546,27.685 84.811,27.685 85.076,27.685 85.341,27.685 
				85.606,27.685 85.871,27.685 86.136,27.685 86.4,27.685 86.666,27.685 86.931,27.685 87.195,27.685 87.46,27.685 87.726,27.685 
				87.99,27.685 88.255,27.685 88.521,27.685 88.785,27.685 89.05,27.685 89.315,27.685 89.58,27.685 89.845,27.685 90.11,27.685 
				90.375,27.685 90.64,-10.082 90.905,-10.082 91.17,-10.082 91.435,-10.082 91.7,-10.082 91.965,-10.082 92.23,-10.082 
				92.495,-10.082 92.76,-10.082 93.025,-10.082 93.29,27.685 93.555,27.685 93.82,27.685 94.084,27.685 94.35,27.685 
				94.614,27.685 94.879,27.685 95.145,27.685 95.409,27.685 95.674,27.685 95.939,27.685 96.204,27.685 96.469,27.685 
				96.734,27.685 96.999,27.685 97.264,27.685 97.529,27.685 97.794,-10.082 98.059,-10.082 98.324,-10.082 98.589,-10.082 
				98.854,-10.082 99.119,-10.082 99.384,-10.082 99.649,-10.082 99.914,-10.082 100.179,-10.082 100.444,27.685 100.708,27.685 
				100.974,27.685 101.239,27.685 101.503,27.685 101.769,27.685 102.034,27.685 102.298,27.685 102.563,27.685 102.828,27.685 
				103.093,27.685 103.358,27.685 103.623,27.685 103.888,27.685 104.153,27.685 104.418,27.685 104.683,-10.082 104.948,-10.082 
				105.213,-10.082 105.478,-10.082 105.743,-10.082 106.008,-10.082 106.273,-10.082 106.538,-10.082 106.803,-10.082 
				107.068,-10.082 107.333,27.685 107.598,27.685 107.863,27.685 108.127,27.685 108.393,27.685 108.658,27.685 108.922,27.685 
				109.188,27.685 109.453,27.685 109.717,27.685 109.982,27.685 110.248,27.685 110.512,27.685 110.777,27.685 111.042,27.685 
				111.307,27.685 111.572,27.685 111.837,27.685 112.102,-10.082 112.367,-10.082 112.632,-10.082 112.897,-10.082 
				113.162,-10.082 113.427,-10.082 113.692,-10.082 113.957,-10.082 114.222,-10.082 114.487,-10.082 114.751,27.685 
				115.017,27.685 115.282,27.685 115.546,27.685 115.812,27.685 116.077,27.685 116.341,27.685 116.606,27.685 116.872,27.685 
				117.136,27.685 117.401,27.685 117.667,27.685 117.931,27.685 118.196,27.685 118.461,27.685 118.726,27.685 118.991,27.685 
				119.256,27.685 119.521,27.685 119.786,27.685 120.051,27.685 120.316,27.685 120.581,27.685 120.846,27.685 121.111,27.685 
				121.376,27.685 121.641,27.685 121.906,27.685 122.171,-10.082 122.436,-10.082 122.701,-10.082 122.965,-10.082 123.23,-10.082 
				123.496,-10.082 123.76,-10.082 124.025,-10.082 124.291,-10.082 124.555,-10.082 124.82,27.685 125.085,27.685 125.35,27.685 
				125.615,27.685 125.88,27.685 126.145,27.685 126.41,27.685 126.675,27.685 126.94,27.685 127.205,27.685 127.47,27.685 
				127.735,27.685 128,27.685 128.265,27.685 128.53,27.685 128.795,27.685 129.06,27.685 129.325,27.685 129.59,27.685 
				129.854,27.685 130.12,27.685 130.385,27.685 130.649,27.685 130.915,27.685 131.179,27.685 131.444,27.685 131.709,27.685 
				131.974,27.685 132.239,27.685 132.504,27.685 132.769,27.685 133.034,27.685 133.299,27.685 133.564,27.685 133.829,27.685 
				134.094,27.685 134.359,27.685 134.624,27.685 134.889,27.685 135.154,-10.082 135.419,-10.082 135.684,-10.082 135.949,-10.082 
				136.214,-10.082 136.479,-10.082 136.744,-10.082 137.009,-10.082 137.273,-10.082 137.539,-10.082 137.804,27.685 
				138.068,27.685 138.333,27.685 138.599,27.685 138.863,27.685 139.128,27.685 139.393,27.685 139.658,27.685 139.923,27.685 
				140.188,27.685 140.453,27.685 			"/>
			<g clip-path="url(#SVGID_2_)">
				<text transform="matrix(1.0025 0 0 1 11.2412 46.313)" fill="#FF0000" font-family="'Arial-BoldMT'" font-size="7.693">Responsive open-loop stimulation</text>
			</g>
			
				<polyline clip-path="url(#SVGID_2_)" fill="none" stroke="#FF0000" stroke-width="0.5002" stroke-linejoin="round" stroke-miterlimit="10" points="
				8.236,87.632 8.501,87.632 8.767,87.632 9.031,87.632 9.296,87.632 9.561,87.632 9.826,87.632 10.091,87.632 10.356,87.632 
				10.621,87.632 10.886,87.632 11.151,87.632 11.416,87.632 11.681,87.632 11.946,87.632 12.211,87.632 12.476,87.632 
				12.741,87.632 13.006,49.266 13.271,49.266 13.536,49.266 13.801,49.266 14.065,49.266 14.331,49.266 14.596,49.266 
				14.86,49.266 15.125,49.266 15.391,49.266 15.655,49.266 15.92,87.632 16.186,87.632 16.45,87.632 16.715,87.632 16.98,87.632 
				17.245,87.632 17.51,87.632 17.775,87.632 18.04,87.632 18.305,87.632 18.57,87.632 18.835,87.632 19.1,87.632 19.365,87.632 
				19.63,87.632 19.895,87.632 20.16,87.632 20.425,87.632 20.69,87.632 20.955,87.632 21.22,87.632 21.484,87.632 21.75,87.632 
				22.015,87.632 22.279,87.632 22.544,87.632 22.81,87.632 23.074,87.632 23.339,87.632 23.604,87.632 23.869,87.632 
				24.134,87.632 24.399,87.632 24.664,87.632 24.929,87.632 25.194,49.266 25.459,49.266 25.724,49.266 25.989,49.266 
				26.254,49.266 26.519,49.266 26.784,49.266 27.049,49.266 27.314,49.266 27.579,49.266 27.844,49.266 28.109,87.632 
				28.374,87.632 28.639,87.632 28.904,87.632 29.168,87.632 29.434,87.632 29.698,87.632 29.963,87.632 30.229,87.632 
				30.493,87.632 30.758,87.632 31.023,87.632 31.288,87.632 31.553,87.632 31.818,87.632 32.083,87.632 32.348,87.632 
				32.613,87.632 32.878,87.632 33.143,87.632 33.408,87.632 33.673,87.632 33.938,87.632 34.203,87.632 34.468,87.632 
				34.733,87.632 34.998,87.632 35.263,87.632 35.528,87.632 35.792,87.632 36.058,87.632 36.323,87.632 36.587,87.632 
				36.853,87.632 37.118,49.266 37.382,49.266 37.647,49.266 37.912,49.266 38.177,49.266 38.442,49.266 38.707,49.266 
				38.972,49.266 39.237,49.266 39.502,49.266 39.767,49.266 40.032,87.632 40.297,87.632 40.562,87.632 40.827,87.632 
				41.092,87.632 41.357,87.632 41.622,87.632 41.887,87.632 42.152,87.632 42.417,87.632 42.682,87.632 42.947,87.632 
				43.211,87.632 43.477,87.632 43.742,87.632 44.006,87.632 44.271,87.632 44.537,87.632 44.801,87.632 45.066,87.632 
				45.332,87.632 45.596,87.632 45.861,87.632 46.126,87.632 46.391,87.632 46.656,87.632 46.921,87.632 47.186,87.632 
				47.451,87.632 47.716,87.632 47.981,87.632 48.246,87.632 48.511,87.632 48.776,87.632 49.041,87.632 49.306,49.266 
				49.571,49.266 49.835,49.266 50.101,49.266 50.366,49.266 50.63,49.266 50.896,49.266 51.161,49.266 51.425,49.266 51.69,49.266 
				51.956,49.266 52.22,87.632 52.485,87.632 52.75,87.632 53.015,87.632 53.28,87.632 53.545,87.632 53.81,87.632 54.075,87.632 
				54.34,87.632 54.605,87.632 54.87,87.632 55.135,87.632 55.4,87.632 55.665,87.632 55.93,87.632 56.195,87.632 56.46,87.632 
				56.725,87.632 56.99,87.632 57.255,87.632 57.52,87.632 57.785,87.632 58.049,87.632 58.314,87.632 58.58,87.632 58.844,87.632 
				59.109,87.632 59.375,87.632 59.639,87.632 59.904,87.632 60.169,87.632 60.434,87.632 60.699,87.632 60.964,87.632 
				61.229,49.266 61.494,49.266 61.759,49.266 62.024,49.266 62.289,49.266 62.554,49.266 62.819,49.266 63.084,49.266 
				63.349,49.266 63.614,49.266 63.879,49.266 64.144,87.632 64.409,87.632 64.674,87.632 64.938,87.632 65.204,87.632 
				65.469,87.632 65.733,87.632 65.999,87.632 66.263,87.632 66.528,87.632 66.793,87.632 67.058,87.632 67.323,87.632 
				67.588,87.632 67.853,87.632 68.118,87.632 68.383,87.632 68.648,87.632 68.913,87.632 69.178,87.632 69.443,87.632 
				69.708,87.632 69.973,87.632 70.238,87.632 70.503,87.632 70.768,87.632 71.033,87.632 71.298,87.632 71.563,87.632 
				71.828,87.632 72.093,87.632 72.357,87.632 72.623,87.632 72.888,87.632 73.152,87.632 73.417,49.266 73.683,49.266 
				73.947,49.266 74.212,49.266 74.477,49.266 74.742,49.266 75.007,49.266 75.272,49.266 75.537,49.266 75.802,49.266 
				76.067,49.266 76.332,87.632 76.597,87.632 76.862,87.632 77.127,87.632 77.392,87.632 77.657,87.632 77.922,87.632 
				78.187,87.632 78.452,87.632 78.717,87.632 78.981,87.632 79.247,87.632 79.512,87.632 79.776,87.632 80.042,87.632 
				80.307,87.632 80.571,87.632 80.836,87.632 81.102,87.632 81.366,87.632 81.631,87.632 81.896,87.632 82.161,87.632 
				82.426,87.632 82.691,87.632 82.956,87.632 83.221,87.632 83.486,87.632 83.751,87.632 84.016,87.632 84.281,87.632 
				84.546,87.632 84.811,87.632 85.076,87.632 85.341,49.266 85.606,49.266 85.871,49.266 86.136,49.266 86.4,49.266 86.666,49.266 
				86.931,49.266 87.195,49.266 87.46,49.266 87.726,49.266 87.99,49.266 88.255,87.632 88.521,87.632 88.785,87.632 89.05,87.632 
				89.315,87.632 89.58,87.632 89.845,87.632 90.11,87.632 90.375,87.632 90.64,87.632 90.905,87.632 91.17,87.632 91.435,87.632 
				91.7,87.632 91.965,87.632 92.23,87.632 92.495,87.632 92.76,87.632 93.025,87.632 93.29,87.632 93.555,87.632 93.82,87.632 
				94.084,87.632 94.35,87.632 94.614,87.632 94.879,87.632 95.145,87.632 95.409,87.632 95.674,87.632 95.939,87.632 
				96.204,87.632 96.469,87.632 96.734,87.632 96.999,87.632 97.264,87.632 97.529,49.266 97.794,49.266 98.059,49.266 
				98.324,49.266 98.589,49.266 98.854,49.266 99.119,49.266 99.384,49.266 99.649,49.266 99.914,49.266 100.179,49.266 
				100.444,87.632 100.708,87.632 100.974,87.632 101.239,87.632 101.503,87.632 101.769,87.632 102.034,87.632 102.298,87.632 
				102.563,87.632 102.828,87.632 103.093,87.632 103.358,87.632 103.623,87.632 103.888,87.632 104.153,87.632 104.418,87.632 
				104.683,87.632 104.948,87.632 105.213,87.632 105.478,87.632 105.743,87.632 106.008,87.632 106.273,87.632 106.538,87.632 
				106.803,87.632 107.068,87.632 107.333,87.632 107.598,87.632 107.863,87.632 108.127,87.632 108.393,87.632 108.658,87.632 
				108.922,87.632 109.188,87.632 109.453,49.266 109.717,49.266 109.982,49.266 110.248,49.266 110.512,49.266 110.777,49.266 
				111.042,49.266 111.307,49.266 111.572,49.266 111.837,49.266 112.102,49.266 112.367,87.632 112.632,87.632 112.897,87.632 
				113.162,87.632 113.427,87.632 113.692,87.632 113.957,87.632 114.222,87.632 114.487,87.632 114.751,87.632 115.017,87.632 
				115.282,87.632 115.546,87.632 115.812,87.632 116.077,87.632 116.341,87.632 116.606,87.632 116.872,87.632 117.136,87.632 
				117.401,87.632 117.667,87.632 117.931,87.632 118.196,87.632 118.461,87.632 118.726,87.632 118.991,87.632 119.256,87.632 
				119.521,87.632 119.786,87.632 120.051,87.632 120.316,87.632 120.581,87.632 120.846,87.632 121.111,87.632 121.376,87.632 
				121.641,49.266 121.906,49.266 122.171,49.266 122.436,49.266 122.701,49.266 122.965,49.266 123.23,49.266 123.496,49.266 
				123.76,49.266 124.025,49.266 124.291,49.266 124.555,87.632 124.82,87.632 125.085,87.632 125.35,87.632 125.615,87.632 
				125.88,87.632 126.145,87.632 126.41,87.632 126.675,87.632 126.94,87.632 127.205,87.632 127.47,87.632 127.735,87.632 
				128,87.632 128.265,87.632 128.53,87.632 128.795,87.632 129.06,87.632 129.325,87.632 129.59,87.632 129.854,87.632 
				130.12,87.632 130.385,87.632 130.649,87.632 130.915,87.632 131.179,87.632 131.444,87.632 131.709,87.632 131.974,87.632 
				132.239,87.632 132.504,87.632 132.769,87.632 133.034,87.632 133.299,87.632 133.564,49.266 133.829,49.266 134.094,49.266 
				134.359,49.266 134.624,49.266 134.889,49.266 135.154,49.266 135.419,49.266 135.684,49.266 135.949,49.266 136.214,49.266 
				136.479,87.632 136.744,87.632 137.009,87.632 137.273,87.632 137.539,87.632 137.804,87.632 138.068,87.632 138.333,87.632 
				138.599,87.632 138.863,87.632 139.128,87.632 139.393,87.632 139.658,87.632 139.923,87.632 140.188,87.632 140.453,87.632 			
				"/>
		</g>
	</g>
</g>
</svg>
